<?xml version="1.0" encoding="UTF-8"?>
<svg width="534px" height="142px" viewBox="0 0 534 142" version="1.1" xmlns="http://www.w3.org/2000/svg" xmlns:xlink="http://www.w3.org/1999/xlink">
    <!-- Generator: Sketch 45.2 (43514) - http://www.bohemiancoding.com/sketch -->
    <title>AJMN_Double_Horizontal</title>
    <desc>Created with Sketch.</desc>
    <defs></defs>
    <g id="Page-1" stroke="none" stroke-width="1" fill="none" fill-rule="evenodd">
        <g id="Artboard" transform="translate(-875.000000, -835.000000)" fill="#666666">
            <g id="AJMN_Double_Horizontal" transform="translate(875.000000, 835.000000)">
                <path d="M503.250179,124.047398 C503.037691,124.144333 502.965431,124.500955 503.102081,125.002085 C503.250179,125.479249 504.053626,127.566397 504.053626,127.566397 C504.621333,129.136676 505.581821,130.953764 506.874634,131.886632 C508.253659,132.873869 508.966602,132.526905 509.245268,132.420312 C509.449886,132.305492 510.336325,131.755716 510.020098,130.327441 C509.682049,128.813678 509.496748,128.405906 509.220228,127.853626 C508.95122,127.300988 508.585268,126.958316 508.36813,127.051675 C508.238276,127.074567 508.346309,127.57212 508.346309,127.884745 C508.334504,128.435237 508.145626,128.849805 507.689886,129.051903 C507.286732,129.227531 506.295122,129.587729 505.532813,128.216328 C504.906439,127.112125 504.354114,125.653447 504.122667,125.058958 C503.933073,124.592167 503.650829,124.028083 503.355707,124.028083 C503.324943,124.028083 503.300618,124.03774 503.250179,124.047398 L503.250179,124.047398 Z M481.541724,128.111881 L486.154211,131.983567 L490.638992,126.481152 L486.030081,122.599093 L481.541724,128.111881 L481.541724,128.111881 Z M482.574114,118.492044 L487.176228,122.362299 L491.676748,116.882061 L487.059252,112.983905 L482.574114,118.492044 L482.574114,118.492044 Z M512.029431,104.932201 L517.443935,107.54981 L520.435577,101.075538 L515.028943,98.479749 L512.029431,104.932201 L512.029431,104.932201 Z M483.98426,100.393773 C486.277984,105.835022 489.749333,110.555159 493.738309,114.027658 C494.153626,111.178263 494.602927,109.170882 495.025041,107.73903 C490.954862,104.781254 488.038699,101.583465 486.169593,98.3863908 L483.98426,100.393773 L483.98426,100.393773 Z M494.268455,93.4566444 L499.685821,96.0517184 L502.681041,89.5842432 L497.268683,86.9884538 L494.268455,93.4566444 L494.268455,93.4566444 Z M468.114569,67.6865403 C468.114569,67.6865403 464.73587,70.1227979 463.375089,73.3492028 C462.541236,75.3229613 462.597041,77.4583978 463.067805,78.491062 C463.548585,79.5219377 464.673984,80.5077439 466.139935,79.3212711 C467.166244,78.491062 467.615545,77.3289124 467.838407,76.3352369 C467.975057,75.7457563 468.021203,75.373754 468.021203,75.0840214 C468.021203,74.7209614 467.902797,74.4151326 467.562602,74.4966869 C466.585301,74.8254082 467.166244,76.1617551 466.468683,76.8084668 C465.938537,77.1364727 464.561659,76.9594139 464.290146,75.5808591 C464.022569,74.2005158 465.067122,72.4259932 466.015089,71.2509666 C466.964846,70.0727207 468.634341,68.5303418 468.634341,68.5303418 C468.634341,68.5303418 469.825203,67.5298701 469.421691,67.0351785 C469.403447,67.006563 469.359805,66.9940437 469.311512,66.9940437 C468.963805,66.9940437 468.114569,67.6865403 468.114569,67.6865403 L468.114569,67.6865403 Z M501.403252,64.1088794 C500.994374,64.5506322 499.069821,66.6942956 497.219317,68.7539009 C495.564488,70.5888739 493.985496,72.3412196 493.63922,72.727172 C492.84865,73.6196199 492.433333,74.4966869 492.538504,74.9699168 L493.015707,77.3664703 C493.143772,76.9211406 493.64852,76.1081009 494.205854,75.4782008 C494.602927,75.0360903 496.52748,72.8824114 498.38478,70.841764 C500.030667,69.003214 501.611447,67.259453 501.962016,66.8520389 C502.758309,65.9839143 503.170764,65.0961164 503.061659,64.6321865 L502.572293,62.2177483 C502.457463,62.6738089 501.962016,63.4779062 501.403252,64.1088794 L501.403252,64.1088794 Z M456.292878,98.9973331 C456.956098,96.8683351 458.152325,94.9578885 460.234992,93.7610425 C463.651252,92.13854 464.990211,96.2885122 464.990211,96.2885122 C464.751967,99.0978452 462.649984,100.57262 460.310114,100.57262 C458.939675,100.57262 457.477301,100.052174 456.292878,98.9973331 L456.292878,98.9973331 Z M481.721301,31.5944445 C479.403252,31.6573987 477.577789,33.636165 477.642537,35.9915837 C477.716585,38.3580908 479.647935,40.2295487 481.969561,40.1537175 C483.240195,40.1175903 484.336976,39.5009249 485.093561,38.6034693 L485.180846,38.497234 C485.67665,41.9057054 484.070829,44.628834 480.332618,47.780123 C476.508911,51.0523128 467.562602,55.3196088 461.202634,60.4342833 C452.250959,67.6257323 450.136813,75.4538776 449.592,81.791152 C449.358764,84.6198005 449.76478,88.3380354 450.524943,91.4131354 C451.47613,95.2819597 452.854797,98.2429552 452.854797,98.2429552 C452.854797,98.2429552 452.926699,98.3663599 453.035447,98.578115 C452.808293,102.772799 453.224325,110.098384 455.552033,115.632634 C458.680325,122.769713 464.301951,128.613011 472.366829,126.895004 C480.506829,124.95165 481.416878,111.510562 482.344813,101.697212 C482.586634,100.089732 482.830602,99.804292 483.314959,99.3918701 C484.622797,98.2651323 487.796878,95.2379633 489.308976,93.8912433 C490.24478,93.053165 491.057171,92.2172328 491.584455,91.1477261 C492.256976,89.8485795 491.901041,88.1176955 491.901041,88.1176955 L490.988846,81.6509357 C490.763122,82.5702107 489.656683,83.856838 488.100228,85.4460749 C486.479382,87.111143 482.157724,90.8755205 481.764585,91.2897308 C481.374309,91.6910641 479.967024,92.7273052 479.365691,97.6638478 C477.803512,111.088124 475.200358,117.423968 470.525984,119.566201 C469.292553,120.156397 467.909593,120.431464 466.372098,120.470095 C457.805333,120.385679 455.552033,109.787547 455.59174,103.978945 C455.598179,103.638062 455.60426,103.286806 455.62322,102.968458 C457.613593,105.68944 460.55122,108.388604 464.177821,107.827023 C469.961496,106.931714 468.161073,97.0250053 467.32078,94.7271755 C466.503024,92.4157533 464.258667,85.5190446 459.410081,85.8606429 C455.973789,86.0974367 454.373333,90.1862431 453.645008,93.6483687 C452.982504,90.9123631 452.629073,87.7045583 452.843707,85.1985503 C453.354537,79.2050203 455.375675,71.7184733 463.96748,64.3453155 C470.088488,59.0975787 477.022602,55.3492975 480.878862,52.2566704 C483.332846,50.2990081 484.858179,48.1009751 485.713854,46.0385083 C485.472033,48.0373054 484.985528,50.2045767 484.04078,52.730258 C480.481789,62.2445754 469.676748,77.9538048 469.531154,100.15519 C469.531154,106.978572 470.162894,112.879459 471.232488,117.925456 C471.818439,117.518757 472.366829,116.986508 472.888033,116.34838 C472.137528,112.738527 471.70361,108.742363 471.70361,104.481148 C471.70361,82.3301976 482.434244,66.6413568 485.933854,57.147428 C487.765756,52.1468582 487.811902,48.5008776 487.811902,44.9024704 C487.811902,40.4863734 486.841756,35.8771214 485.936715,34.0804217 C484.957626,32.357407 483.742797,31.5944445 481.926276,31.5944445 L481.721301,31.5944445 L481.721301,31.5944445 Z M492.256976,1.22188459 C490.103122,2.75496345 488.305561,6.23318529 488.318081,11.5449494 C488.336325,14.8107007 489.234569,18.7188714 491.714309,23.0956219 C488.385691,27.7030855 487.774699,31.951066 489.187707,36.0105415 C490.260878,39.0967301 490.806407,39.8983236 491.29613,41.7493929 C492.523122,46.4477108 491.162341,52.0856924 487.513561,60.7783854 C484.554472,67.8650299 480.707512,75.2757457 480.707512,84.3014523 C480.726472,86.3725038 480.897106,88.3859664 481.185431,90.3640173 C481.528488,90.022419 482.260748,89.3252723 483.15613,88.4925594 C482.715772,81.4220112 485.490276,74.309255 488.900098,67.9219033 C493.859577,58.5896524 494.469854,49.0971544 493.515447,43.901641 C496.996455,47.6781801 502.867057,53.3233155 506.295122,59.1129596 C507.450927,61.0638257 508.145626,62.9080988 508.315545,64.7856375 C508.477236,69.362697 507.060293,72.6420407 504.292585,75.8616493 C501.951642,78.5758356 502.761886,80.9745353 502.86026,81.4441882 C503.037691,82.2168085 503.994602,85.1749424 504.664618,87.111143 C507.261691,81.9549761 514.42761,79.050854 517.676455,74.7649578 C518.420163,80.0438141 514.505593,85.0647725 511.600878,88.4299629 C510.906894,89.1893484 510.150309,89.9669764 509.292488,90.8072009 C503.790341,96.1397113 500.179837,99.8064381 498.267089,103.212406 C497.777366,103.967141 496.984293,105.66154 496.58722,106.966052 C496.026309,108.597497 495.310146,111.366053 494.710959,116.241072 C494.255935,119.117652 493.741886,122.552235 493.574472,124.082452 C493.202439,127.566397 492.166472,133.095282 487.951772,134.669853 C487.71961,134.766788 487.496033,134.821158 487.26065,134.869089 L487.26065,134.888762 C483.240195,135.778349 479.12387,132.363796 476.130081,126.223254 C475.513366,126.698988 474.840846,127.121425 474.109301,127.450146 C478.163024,137.166203 484.262569,141.631305 489.605886,141.631305 C493.654602,141.631305 496.853366,139.562042 497.876813,133.526661 C498.409106,130.483396 498.781496,127.112125 499.115967,123.838504 C499.280878,122.264648 500.046049,113.369143 501.459772,110.142738 C503.201528,106.525015 507.01987,103.024258 512.708033,97.0836672 C516.219089,93.3933325 518.135057,90.3214517 519.132748,87.8476361 C522.443122,81.6999398 518.342179,67.0802481 517.546244,64.4519085 C517.521919,64.3578348 517.51226,64.3367308 517.459317,64.3367308 C517.378472,64.3367308 517.353431,64.3578348 517.291902,64.4651432 C517.285821,64.4901818 517.273301,64.5087819 517.26078,64.5270243 C515.797333,66.9471857 513.182374,69.1538034 510.751642,70.9587301 C512.11922,67.1514293 511.750049,64.2573226 511.20452,61.8224958 L511.20452,61.8038957 C511.170179,61.6643948 511.136195,61.5195285 511.09935,61.3811007 L511.092911,61.3961239 C508.63213,51.6958053 498.846244,43.0592703 494.43587,38.0815929 C488.701561,31.6323601 490.654374,27.4773802 492.767805,24.8375944 C493.164878,25.4292212 493.574472,26.0584059 494.039154,26.6900945 C501.837886,37.4112733 516.526374,54.4239417 524.226016,70.6307242 C526.181691,74.7209614 527.678407,78.7450251 528.500455,82.5791531 C531.533593,99.3632546 519.978764,116.43065 502.656,111.63182 L502.649203,111.63182 C502.537593,111.605708 502.417041,111.571727 502.315447,111.536316 C501.846472,113.028617 501.403252,115.409075 500.966472,118.660518 C503.591805,119.789402 506.437138,120.470095 509.199122,120.591711 L509.201984,120.596719 C509.403382,120.59958 509.608358,120.605661 509.809398,120.612815 C524.042862,120.770201 535.182374,109.965679 533.133333,87.2899903 C533.133333,87.2899903 532.278374,77.8568696 527.465203,67.9219033 C519.764846,50.4692707 505.518862,33.2012084 496.776098,22.0468615 C494.001593,18.50032 492.371447,15.4352354 491.550472,12.7857918 C489.913171,7.62998252 490.954862,3.63453436 493.053984,1.88576569 C493.506146,1.49945557 494.070634,1.06700285 494.584683,0.808747385 C494.897691,0.641346334 494.777138,0.268986304 494.553561,0.228209125 C494.507415,0.228209125 494.43587,0.215689816 494.361106,0.215689816 C494.058114,0.215689816 493.459642,0.354475302 492.256976,1.22188459 L492.256976,1.22188459 Z M476.262081,38.9475714 C473.939024,39.0205411 472.106407,40.9889343 472.18439,43.3747569 C472.242699,45.7283871 474.184065,47.5762372 476.513203,47.5168599 C478.842341,47.4535479 480.668163,45.4629777 480.593756,43.1061283 C480.529008,40.7893407 478.661691,38.9475714 476.401236,38.9475714 L476.262081,38.9475714 L476.262081,38.9475714 Z" id="Fill-1"></path>
                <path d="M109.933106,80.1482609 C109.933106,79.2669015 110.189951,78.4066461 110.704,77.567137 C111.218407,76.7279856 112.02078,75.9725347 113.112195,75.3007843 C114.203252,74.6293916 115.604098,74.0524303 117.315089,73.569185 C119.025008,73.0870127 121.065821,72.7618683 123.437886,72.5937519 L123.437886,82.4460907 L127.970959,82.4460907 L127.970959,85.8770968 L120.919512,85.8770968 C120.688065,85.7304421 120.494179,85.5415793 120.337138,85.310151 C120.179382,85.0797957 120.048098,84.8490827 119.943285,84.618012 C119.838114,84.366195 119.754407,84.1040049 119.691447,83.831084 C119.586276,84.2299134 119.37665,84.5761617 119.061854,84.869829 C118.789268,85.1216459 118.395415,85.3527166 117.881724,85.5623256 C117.366959,85.7722923 116.669756,85.8770968 115.787967,85.8770968 C113.647707,85.8770968 112.136325,85.3684552 111.254894,84.3504565 C110.373463,83.3328155 109.933106,81.9320836 109.933106,80.1482609 L109.933106,80.1482609 Z M112.545919,68.0295694 C112.545919,67.3581767 112.782016,66.7858654 113.253854,66.3140663 C113.726049,65.8419095 114.297691,65.6058311 114.969496,65.6058311 C115.619837,65.6058311 116.170732,65.8419095 116.622179,66.3140663 C117.073268,66.7858654 117.29935,67.3581767 117.29935,68.0295694 C117.29935,68.6802158 117.073268,69.2307077 116.622179,69.6821182 C116.170732,70.1335288 115.619837,70.3588763 114.969496,70.3588763 C114.297691,70.3588763 113.726049,70.1335288 113.253854,69.6821182 C112.782016,69.2307077 112.545919,68.6802158 112.545919,68.0295694 L112.545919,68.0295694 Z M113.741789,79.5816727 L113.741789,80.5885829 C113.741789,81.1977367 113.919935,81.6591627 114.276943,81.9735762 C114.633593,82.2883474 115.210602,82.4460907 116.008325,82.4460907 L119.628488,82.4460907 L119.628488,76.1821437 C118.747057,76.3502601 117.944325,76.5598691 117.220293,76.8116861 C116.49626,77.063503 115.882764,77.3360663 115.378732,77.6300912 C114.875057,77.9241161 114.481919,78.2388873 114.198602,78.5740471 C113.915285,78.91028 113.762537,79.2461552 113.741789,79.5816727 L113.741789,79.5816727 Z M118.778537,68.0295694 C118.778537,67.3581767 119.014634,66.7858654 119.487187,66.3140663 C119.959024,65.8419095 120.530667,65.6058311 121.202829,65.6058311 C121.852813,65.6058311 122.403707,65.8419095 122.855512,66.3140663 C123.306602,66.7858654 123.531967,67.3581767 123.531967,68.0295694 C123.531967,68.6802158 123.306602,69.2307077 122.855512,69.6821182 C122.403707,70.1335288 121.852813,70.3588763 121.202829,70.3588763 C120.530667,70.3588763 119.959024,70.1335288 119.487187,69.6821182 C119.014634,69.2307077 118.778537,68.6802158 118.778537,68.0295694 L118.778537,68.0295694 Z" id="Fill-2"></path>
                <polygon id="Fill-3" points="127.183252 82.4460907 138.578894 82.4460907 138.578894 85.8770968 127.183252 85.8770968"></polygon>
                <path d="M137.79226,82.4460907 L143.710439,82.4460907 L143.710439,73.2229366 L147.708,72.0897603 L147.708,82.4460907 L152.776228,82.4460907 L152.776228,85.8770968 L137.79226,85.8770968 L137.79226,82.4460907 L137.79226,82.4460907 Z M140.090276,91.0078675 C140.090276,90.3357594 140.326374,89.7645212 140.798211,89.2920067 C141.270407,88.8202076 141.842049,88.5841292 142.513854,88.5841292 C143.164195,88.5841292 143.715089,88.8202076 144.166537,89.2920067 C144.617626,89.7645212 144.843707,90.3357594 144.843707,91.0078675 C144.843707,91.6581562 144.617626,92.2090058 144.166537,92.6600587 C143.715089,93.1114692 143.164195,93.3371744 142.513854,93.3371744 C141.842049,93.3371744 141.270407,93.1114692 140.798211,92.6600587 C140.326374,92.2090058 140.090276,91.6581562 140.090276,91.0078675 L140.090276,91.0078675 Z M146.322894,91.0078675 C146.322894,90.3357594 146.55935,89.7645212 147.031187,89.2920067 C147.503382,88.8202076 148.075024,88.5841292 148.747187,88.5841292 C149.397171,88.5841292 149.948065,88.8202076 150.399512,89.2920067 C150.850959,89.7645212 151.076325,90.3357594 151.076325,91.0078675 C151.076325,91.6581562 150.850959,92.2090058 150.399512,92.6600587 C149.948065,93.1114692 149.397171,93.3371744 148.747187,93.3371744 C148.075024,93.3371744 147.503382,93.1114692 147.031187,92.6600587 C146.55935,92.2090058 146.322894,91.6581562 146.322894,91.0078675 L146.322894,91.0078675 Z" id="Fill-4"></path>
                <path d="M167.351317,83.1385873 C167.308748,83.6844292 167.068,84.3769259 166.627285,85.2160773 C165.78735,86.9362304 164.990341,87.7972012 164.234829,87.7972012 C163.961886,87.7972012 163.668195,87.7235161 163.353398,87.5765037 C162.723805,87.3246867 161.86813,86.9362304 160.787805,86.4122079 C159.706407,85.88747 158.400358,85.2368236 156.868585,84.4606264 C156.511577,85.0898111 156.101984,85.4993714 155.640878,85.6882341 C155.283512,85.8141426 154.696488,85.8770968 153.877659,85.8770968 L151.831837,85.8770968 L151.831837,82.4460907 L154.160976,82.4460907 C154.790927,80.9981431 155.452,79.6814695 156.144195,78.495712 C156.837106,77.3103123 157.524293,76.3030444 158.206472,75.4735508 C158.887935,74.6451302 159.549366,73.9994915 160.189691,73.5377078 C160.829659,73.0766396 161.422049,72.8455689 161.968293,72.8455689 C163.353398,72.8455689 164.507057,73.8320904 165.430699,75.8040605 C165.703285,76.3921104 165.976585,77.1318227 166.249171,78.0231975 C166.521756,78.9156454 166.815805,79.9905176 167.130959,81.2499601 C167.319837,82.1105732 167.393171,82.7401156 167.351317,83.1385873 L167.351317,83.1385873 Z M163.825593,83.6733407 C163.573756,81.7850711 163.24322,80.2580731 162.833984,79.0937773 C162.424748,77.9291239 161.91535,77.3467971 161.30722,77.3467971 C161.097236,77.3467971 160.729854,77.588241 160.205431,78.0704132 C159.890634,78.3855421 159.560098,78.8212141 159.213821,79.3770714 C158.867545,79.9332864 158.578862,80.431555 158.34813,80.871877 C159.229203,81.543985 160.142472,82.1155809 161.086862,82.5877377 C162.030894,83.0595368 162.944163,83.4218814 163.825593,83.6733407 L163.825593,83.6733407 Z" id="Fill-5"></path>
                <path d="M171.852911,69.8863618 C172.020325,69.7815573 172.287902,69.6560065 172.655642,69.5089941 C173.022309,69.3623393 173.395415,69.2049537 173.773171,69.0364796 C174.213886,68.8479745 174.685724,68.6591118 175.189756,68.4698914 C175.818992,69.2882965 176.432846,70.3324069 177.031317,71.6018649 C177.629431,72.8720383 178.174602,74.1833465 178.667902,75.536505 C179.160846,76.8900212 179.596911,78.1859486 179.974667,79.4239294 C180.352065,80.6626256 180.646114,81.6591627 180.856098,82.4146136 C181.317561,82.3516593 181.690309,82.2153777 181.973626,82.0050533 C182.256943,81.795802 182.477301,81.5489927 182.634699,81.2656987 C182.792098,80.9824046 182.896911,80.6729988 182.949496,80.3371236 C183.001724,80.0016061 183.028195,79.6657309 183.028195,79.3298557 L183.028195,65.7317396 L187.057236,64.5352513 L187.057236,80.5571057 C187.057236,81.2292138 187.230732,81.7117438 187.577008,82.0050533 C187.922927,82.2990782 188.37974,82.4460907 188.946374,82.4460907 L191.464748,82.4460907 L191.464748,85.8770968 L190.048163,85.8770968 C189.040455,85.8770968 188.179772,85.6882341 187.466829,85.310151 C186.753171,84.9327832 186.218016,84.4291493 185.861366,83.7996069 C185.378081,84.408403 184.701626,84.9066715 183.830927,85.2947701 C182.959512,85.6832264 181.789756,85.8770968 180.320585,85.8770968 L169.271577,85.8770968 L170.373366,82.4460907 L176.95226,82.4460907 C176.784488,81.7117438 176.563772,80.8561384 176.291545,79.8807053 C176.018602,78.9045569 175.677691,77.8661696 175.268098,76.7644704 C174.85922,75.6627712 174.371285,74.5245871 173.80465,73.3492028 C173.238016,72.1741762 172.586959,71.0195382 171.852911,69.8863618" id="Fill-6"></path>
                <path d="M190.52,82.4460907 L195.55639,82.4460907 C195.136423,81.9006065 194.858829,81.2342215 194.722537,80.4472935 C194.585528,79.6603655 194.517919,78.8262218 194.517919,77.9448624 C194.517919,76.2450979 195.205106,74.8969471 196.579837,73.9000524 C197.953854,72.9035154 199.848,72.3730544 202.261561,72.3104578 C203.142992,72.2686076 204.13961,72.3211887 205.252488,72.4678434 C206.364293,72.6148559 207.424585,72.7826146 208.431577,72.9711197 L208.431577,76.4969149 C208.117138,76.4132143 207.723642,76.318783 207.251447,76.2136208 C206.778894,76.1088163 206.264846,76.0143849 205.708943,75.9303267 C205.152325,75.8462685 204.575675,75.7783065 203.977203,75.7257254 C203.379089,75.673502 202.796715,75.6470326 202.230081,75.6470326 C201.76826,75.6470326 201.337919,75.6785097 200.939772,75.741464 C200.540911,75.8040605 200.188911,75.9303267 199.885203,76.1191894 C199.580423,76.3076945 199.344325,76.5705999 199.176553,76.9057597 C199.00878,77.2419926 198.924715,77.6722992 198.924715,78.1966794 C198.924715,79.3298557 199.035252,80.2269537 199.25561,80.8876155 C199.47561,81.5489927 199.764293,82.0683652 200.121301,82.4460907 L208.557854,82.4460907 L208.557854,85.8770968 L190.52,85.8770968 L190.52,82.4460907" id="Fill-7"></path>
                <path d="M211.957301,64.8185454 C212.481724,65.3017907 213.106309,65.8211632 213.830341,66.3770206 C214.554732,66.9332356 215.299154,67.5309432 216.065398,68.1712164 C216.831285,68.8114897 217.597171,69.4932555 218.363415,70.2172293 C219.129301,70.9412031 219.82722,71.7123925 220.457171,72.5307977 C220.60348,72.3630389 220.677171,71.7438696 220.677171,70.6736475 L220.677171,65.6684277 L224.549171,64.4097005 L224.549171,70.7677212 C224.549171,72.4470971 223.919577,74.0102223 222.66039,75.4581699 C224.402146,78.144456 225.273561,80.5367172 225.273561,82.6349534 L225.273561,85.8770968 L210.981431,85.8770968 L210.981431,81.6276855 C211.757691,81.1236939 212.508195,80.594306 213.232228,80.0377333 C213.95626,79.4822336 214.633073,78.9363917 215.262667,78.4012807 C215.89226,77.8661696 216.463902,77.3518049 216.978309,76.8589018 C217.492715,76.3659987 217.927707,75.9410575 218.284715,75.5840784 C217.696976,74.7656732 217.046276,74.0102223 216.332976,73.3177257 C215.619317,72.625229 214.895285,71.9853135 214.160878,71.3976213 C213.426114,70.8102869 212.707805,70.264445 212.004878,69.760811 C211.301236,69.2571771 210.677008,68.7846626 210.13148,68.3443406 L211.957301,64.8185454 L211.957301,64.8185454 Z M221.464163,94.9425076 L213.909041,97.1770255 L213.909041,95.1939669 L215.987057,94.5647822 C215.75561,94.5222165 215.550992,94.4231351 215.373203,94.2657495 C215.194341,94.1083639 215.042309,93.9195012 214.91639,93.6991613 C214.790472,93.4784638 214.690667,93.2423854 214.617333,92.9909261 C214.543642,92.7391092 214.507154,92.5187693 214.507154,92.3295489 C214.507154,91.6789025 214.653821,91.0965758 214.94787,90.5829264 C215.241919,90.0682039 215.613951,89.6278819 216.065398,89.2605296 C216.516488,88.893535 217.004423,88.6156063 217.529203,88.4263859 C218.053626,88.2378809 218.546927,88.1430918 219.008748,88.1430918 C219.491317,88.1430918 219.953138,88.2221423 220.393854,88.3795279 C220.834569,88.5369135 221.264553,88.8878119 221.68452,89.4340115 C221.474537,89.6017702 221.217333,89.8113792 220.913268,90.0635539 C220.608846,90.3153709 220.246829,90.6190535 219.82722,90.9760327 C219.449463,90.577561 218.977268,90.3779674 218.410634,90.3779674 C217.864748,90.3779674 217.476976,90.5249799 217.245886,90.8190048 C217.014797,91.1123143 216.89961,91.4059815 216.89961,91.7003642 C216.89961,91.9725697 216.978309,92.2247444 217.135707,92.4558151 C217.293106,92.6865281 217.486992,92.8807562 217.718081,93.0381418 C217.948813,93.1951697 218.190634,93.3214359 218.442114,93.4158672 C218.693951,93.5099409 218.914309,93.5678874 219.103187,93.5889914 L221.464163,92.8961371 L221.464163,94.9425076 L221.464163,94.9425076 Z M222.093756,82.4460907 C222.030797,82.1942737 221.941366,81.8952411 221.826179,81.5489927 C221.710992,81.2027444 221.568976,80.8357498 221.401203,80.4472935 C221.233073,80.0591949 221.044195,79.6603655 220.834569,79.2511629 C220.624585,78.8416027 220.393854,78.4592272 220.142016,78.102248 C219.701301,78.5429277 219.281333,78.9471226 218.882829,79.3141172 C218.483967,79.6814695 218.069366,80.0377333 217.63974,80.3843393 C217.209398,80.7305876 216.74722,81.0664628 216.254634,81.3912494 C215.760976,81.7171092 215.210081,82.0683652 214.601593,82.4460907 L222.093756,82.4460907 L222.093756,82.4460907 Z" id="Fill-8"></path>
                <polyline id="Fill-9" points="232.482049 64.5352513 232.482049 85.8770968 228.48413 85.8770968 228.48413 65.6684277 232.482049 64.5352513"></polyline>
                <path d="M257.696911,80.7778033 C257.696911,81.7643249 257.50839,82.5984686 257.130276,83.2802344 C256.752878,83.9623579 256.228098,84.523223 255.55665,84.9642603 C254.884846,85.40494 254.082114,85.7250767 253.148098,85.9239548 C252.214081,86.1235484 251.19135,86.2229875 250.078829,86.2229875 C249.344423,86.2229875 248.583902,86.1600332 247.796553,86.0344824 C247.009561,85.9082163 246.295902,85.677861 245.656293,85.3416281 C245.01561,85.0064683 244.486179,84.5550578 244.066569,83.9884696 C243.646602,83.4218814 243.436976,82.6979076 243.436976,81.8165483 C243.436976,80.179738 243.777528,78.7056787 244.459707,77.3940128 C245.141886,76.0827046 246.123122,74.9541783 247.403415,74.0102223 L246.301626,73.5377078 L247.843772,71.0510153 C249.355154,71.3661442 250.718797,71.8222048 251.936488,72.42027 C253.153106,73.0183353 254.187285,73.7322937 255.037236,74.5610719 C255.887187,75.3902079 256.542894,76.3291561 257.004715,77.3782743 C257.466179,78.4277501 257.696911,79.5609264 257.696911,80.7778033 L257.696911,80.7778033 Z M243.908813,67.9033032 C243.908813,67.14821 244.17639,66.5025714 244.711545,65.9674603 C245.246699,65.4327069 245.892033,65.1651514 246.647545,65.1651514 C247.025301,65.1651514 247.376943,65.2388365 247.702472,65.3851336 C248.027642,65.532146 248.310959,65.7263742 248.552423,65.9674603 C248.793528,66.2092618 248.982407,66.4979213 249.119057,66.8330811 C249.25535,67.169314 249.323675,67.5259355 249.323675,67.9033032 C249.323675,68.6383655 249.061106,69.2679079 248.536683,69.7922882 C248.011902,70.3166684 247.381951,70.5792162 246.647545,70.5792162 C246.270146,70.5792162 245.913138,70.5112542 245.577236,70.3746149 C245.241691,70.2383333 244.95265,70.0491129 244.711545,69.8080267 C244.470439,69.5669406 244.276195,69.2836465 244.129171,68.9581445 C243.982146,68.6326424 243.908813,68.2813864 243.908813,67.9033032 L243.908813,67.9033032 Z M253.321593,80.6833719 C253.321593,80.431555 253.279382,80.0645603 253.195317,79.5816727 C253.11161,79.0991427 252.953854,78.6008742 252.72348,78.0865095 C252.492033,77.5725024 252.182602,77.0949802 251.794472,76.6539428 C251.405984,76.2136208 250.908033,75.8988496 250.299187,75.7099869 C249.921789,75.9199536 249.575512,76.2186285 249.260358,76.6067271 C248.945561,76.9955411 248.672976,77.3993782 248.442244,77.8189539 C248.211154,78.2388873 248.027642,78.6584631 247.89135,79.0780388 C247.754341,79.4976145 247.686732,79.8442205 247.686732,80.1167838 C247.686732,80.5367172 247.760065,80.8933386 247.907089,81.1870059 C248.053398,81.4810308 248.237626,81.7217592 248.457984,81.9109796 C248.677984,82.0998424 248.929821,82.2364817 249.213138,82.3201822 C249.496455,82.4038827 249.78478,82.4460907 250.078829,82.4460907 C251.002114,82.4460907 251.773724,82.3044436 252.392943,82.0211496 C253.011805,81.7378555 253.321593,81.2921681 253.321593,80.6833719 L253.321593,80.6833719 Z M250.330667,67.9033032 C250.330667,67.14821 250.598244,66.5025714 251.133756,65.9674603 C251.668911,65.4327069 252.313886,65.1651514 253.069756,65.1651514 C253.447154,65.1651514 253.798797,65.2388365 254.124325,65.3851336 C254.449138,65.532146 254.732455,65.7263742 254.974276,65.9674603 C255.215382,66.2092618 255.403902,66.4979213 255.540911,66.8330811 C255.677203,67.169314 255.745528,67.5259355 255.745528,67.9033032 C255.745528,68.6383655 255.482959,69.2679079 254.958537,69.7922882 C254.433398,70.3166684 253.803805,70.5792162 253.069756,70.5792162 C252.692,70.5792162 252.334634,70.5112542 251.999089,70.3746149 C251.663545,70.2383333 251.374504,70.0491129 251.133756,69.8080267 C250.892293,69.5669406 250.698049,69.2836465 250.551382,68.9581445 C250.404,68.6326424 250.330667,68.2813864 250.330667,67.9033032 L250.330667,67.9033032 Z" id="Fill-10"></path>
                <path d="M265.755707,71.9012553 C266.070504,73.6010198 266.301236,75.3007843 266.44826,77.0005488 C266.594927,78.7003133 266.700098,80.2849002 266.763415,81.753594 L270.257301,81.753594 L270.257301,85.8770968 L266.794894,85.8770968 C266.773431,86.2337183 266.715837,86.6640249 266.621398,87.1676588 C266.527317,87.6712927 266.364553,88.1852998 266.133463,88.70968 C265.902732,89.2340602 265.577203,89.7591558 265.157951,90.2838937 C264.737626,90.808274 264.186732,91.2804308 263.505268,91.7003642 C262.822732,92.1199399 261.98852,92.4558151 261.002276,92.707632 C260.016033,92.9590913 258.830179,93.0853575 257.445073,93.0853575 L256.721398,90.5042336 C257.812455,90.4827719 258.777951,90.2838937 259.617171,89.9061683 C259.973821,89.7376942 260.325821,89.5280851 260.672098,89.2762682 C261.018016,89.0244512 261.327805,88.70968 261.60039,88.3323123 C261.872976,87.9545868 262.093333,87.5028186 262.261821,86.9787961 C262.429593,86.4540582 262.513301,85.8456197 262.513301,85.1531231 C262.513301,83.2437495 262.466081,81.2814372 262.372,79.2669015 C262.277561,77.2523658 261.967772,75.2693072 261.44335,73.3177257 L265.755707,71.9012553" id="Fill-11"></path>
                <polygon id="Fill-12" points="269.470309 81.753594 280.866309 81.753594 280.866309 85.8767391 269.470309 85.8767391"></polygon>
                <path d="M292.041236,71.8379433 L292.041236,85.8770968 L280.079317,85.8770968 L280.079317,81.753594 L287.193366,81.753594 L287.193366,73.2229366 L292.041236,71.8379433 L292.041236,71.8379433 Z M280.740033,91.3226387 C280.740033,90.5671878 281.00761,89.9219068 281.542764,89.3867958 C282.077919,88.8516847 282.723252,88.5841292 283.478764,88.5841292 C283.85652,88.5841292 284.207805,88.6574566 284.533333,88.8044691 C284.858504,88.9507661 285.141821,89.1449943 285.383285,89.3867958 C285.62439,89.6278819 285.813268,89.9161837 285.949919,90.2524166 C286.085854,90.5875764 286.154537,90.9449133 286.154537,91.3226387 C286.154537,92.0569856 285.891967,92.6865281 285.367545,93.2109083 C284.842764,93.7352885 284.213171,93.998194 283.478764,93.998194 C283.101008,93.998194 282.744,93.9295166 282.408455,93.793235 C282.072553,93.6569534 281.78387,93.467733 281.542764,93.2266468 C281.301301,92.985203 281.107057,92.7019089 280.96039,92.3767646 C280.813366,92.0512625 280.740033,91.7003642 280.740033,91.3226387 L280.740033,91.3226387 Z M287.161886,91.3226387 C287.161886,90.5671878 287.429463,89.9219068 287.964618,89.3867958 C288.50013,88.8516847 289.145106,88.5841292 289.900976,88.5841292 C290.278374,88.5841292 290.629659,88.6574566 290.955187,88.8044691 C291.280358,88.9507661 291.563675,89.1449943 291.805138,89.3867958 C292.046244,89.6278819 292.235122,89.9161837 292.371772,90.2524166 C292.508065,90.5875764 292.57639,90.9449133 292.57639,91.3226387 C292.57639,92.0569856 292.313821,92.6865281 291.789398,93.2109083 C291.264618,93.7352885 290.635024,93.998194 289.900976,93.998194 C289.522862,93.998194 289.165854,93.9295166 288.830309,93.793235 C288.494407,93.6569534 288.205724,93.467733 287.964618,93.2266468 C287.723154,92.985203 287.528911,92.7019089 287.382602,92.3767646 C287.23522,92.0512625 287.161886,91.7003642 287.161886,91.3226387 L287.161886,91.3226387 Z" id="Fill-13"></path>
                <path d="M301.295545,71.9012553 C301.610699,73.6010198 301.841073,75.3007843 301.988455,77.0005488 C302.135122,78.7003133 302.240293,80.2849002 302.303252,81.753594 L305.797138,81.753594 L305.797138,85.8770968 L302.334374,85.8770968 C302.313626,86.2337183 302.256033,86.6640249 302.161593,87.1676588 C302.066797,87.6712927 301.904033,88.1852998 301.673659,88.70968 C301.442211,89.2340602 301.117041,89.7591558 300.697431,90.2838937 C300.277463,90.808274 299.726569,91.2804308 299.044748,91.7003642 C298.362927,92.1199399 297.528715,92.4558151 296.542472,92.707632 C295.555512,92.9590913 294.370374,93.0853575 292.985268,93.0853575 L292.260878,90.5042336 C293.35265,90.4827719 294.317431,90.2838937 295.157366,89.9061683 C295.513659,89.7376942 295.865301,89.5280851 296.211577,89.2762682 C296.558211,89.0244512 296.867285,88.70968 297.140585,88.3323123 C297.413171,87.9545868 297.633171,87.5028186 297.801301,86.9787961 C297.969073,86.4540582 298.053496,85.8456197 298.053496,85.1531231 C298.053496,83.2437495 298.006276,81.2814372 297.91148,79.2669015 C297.817041,77.2523658 297.507252,75.2693072 296.982829,73.3177257 L301.295545,71.9012553 L301.295545,71.9012553 Z M295.818439,67.9347803 C295.818439,67.1796871 296.086016,66.5340485 296.621171,65.9992951 C297.156325,65.4641841 297.801301,65.1966285 298.557171,65.1966285 C298.934569,65.1966285 299.285854,65.2703136 299.611382,65.4166107 C299.936553,65.5636232 300.21987,65.758209 300.461333,65.9992951 C300.702439,66.2407389 300.891317,66.5293984 301.028325,66.8649159 C301.164618,67.2007911 301.232585,67.5574126 301.232585,67.9347803 C301.232585,68.6698427 300.970016,69.2993851 300.445593,69.8237653 C299.920813,70.3481455 299.291577,70.6106933 298.557171,70.6106933 C298.179057,70.6106933 297.822049,70.5427313 297.486862,70.4057343 C297.150602,70.2698104 296.862276,70.0809477 296.621171,69.8395038 C296.37935,69.5984177 296.185106,69.3151236 296.038797,68.9896216 C295.891772,68.6641195 295.818439,68.3128635 295.818439,67.9347803 L295.818439,67.9347803 Z" id="Fill-14"></path>
                <path d="M326.416683,85.8770968 L304.853106,85.8770968 L304.853106,81.753594 L318.326407,81.753594 C317.78052,80.6626256 317.313333,79.7497891 316.925561,79.0150845 C316.537073,78.2807376 316.185789,77.6984109 315.870992,77.2681043 C315.556195,76.8381555 315.251772,76.5333997 314.958081,76.3549101 C314.664033,76.1771359 314.328488,76.0873546 313.950732,76.0873546 C313.404846,76.0873546 312.932293,76.2243516 312.534146,76.4969149 C312.135285,76.7698358 311.673463,77.2316195 311.149041,77.8819082 L308.410309,75.4581699 C308.745496,74.9541783 309.155089,74.4823791 309.638016,74.0416995 C310.120585,73.6010198 310.650016,73.2182866 311.22774,72.8927846 C311.804748,72.5672825 312.402862,72.3104578 313.022081,72.1212374 C313.640943,71.9327324 314.265528,71.8379433 314.895122,71.8379433 C315.587675,71.8379433 316.227642,71.9906789 316.815382,72.2947193 C317.402407,72.5987596 317.990504,73.0870127 318.578244,73.7584054 C319.165626,74.429798 319.800585,75.3061497 320.482764,76.3863873 C321.164585,77.4676979 321.946569,78.7739984 322.828,80.3052888 C323.121691,80.8092804 323.467967,81.1766327 323.866829,81.406988 C324.265333,81.6384164 324.695675,81.753594 325.157496,81.753594 L326.416683,81.753594 L326.416683,85.8770968 L326.416683,85.8770968 Z M312.691545,91.1652531 C312.691545,90.4094445 312.959122,89.7645212 313.494276,89.2294102 C314.029431,88.6939414 314.674764,88.4263859 315.430276,88.4263859 C315.808033,88.4263859 316.159317,88.500071 316.484846,88.6470835 C316.810016,88.7937382 317.093333,88.9879664 317.334797,89.2294102 C317.575902,89.4701386 317.76478,89.7591558 317.901431,90.0946733 C318.037724,90.4305485 318.106049,90.7875277 318.106049,91.1652531 C318.106049,91.8992423 317.84348,92.5287848 317.319057,93.0538804 C316.794276,93.5782606 316.164325,93.8408084 315.430276,93.8408084 C315.05252,93.8408084 314.695512,93.7724887 314.359967,93.6362071 C314.024065,93.4992101 313.735024,93.310705 313.494276,93.0696189 C313.252813,92.8281751 313.058569,92.544881 312.911902,92.2197367 C312.764878,91.8942346 312.691545,91.5426209 312.691545,91.1652531 L312.691545,91.1652531 Z" id="Fill-15"></path>
                <polyline id="Fill-16" points="334.506602 64.2834343 334.506602 85.8770968 325.503415 85.8770968 325.503415 81.753594 329.658732 81.753594 329.658732 65.6684277 334.506602 64.2834343"></polyline>
                <polyline id="Fill-17" points="343.037593 64.2834343 343.037593 85.8770968 338.189724 85.8770968 338.189724 65.6684277 343.037593 64.2834343"></polyline>
                <path d="M355.629106,80.1482609 C355.629106,79.2669015 355.885951,78.4066461 356.4,77.567137 C356.914407,76.7279856 357.71678,75.9725347 358.808195,75.3007843 C359.899252,74.6293916 361.300098,74.0524303 363.011089,73.569185 C364.721008,73.0870127 366.761821,72.7618683 369.133886,72.5937519 L369.133886,82.4460907 L373.666959,82.4460907 L373.666959,85.8770968 L366.615512,85.8770968 C366.384065,85.7304421 366.190179,85.5415793 366.033138,85.310151 C365.875382,85.0797957 365.744098,84.8490827 365.639285,84.618012 C365.534114,84.366195 365.450407,84.1040049 365.387447,83.831084 C365.282276,84.2299134 365.07265,84.5761617 364.757854,84.869829 C364.485268,85.1216459 364.091415,85.3527166 363.577724,85.5623256 C363.062959,85.7722923 362.365756,85.8770968 361.483967,85.8770968 C359.343707,85.8770968 357.832325,85.3684552 356.950894,84.3504565 C356.069463,83.3328155 355.629106,81.9320836 355.629106,80.1482609 L355.629106,80.1482609 Z M358.241561,68.0295694 C358.241561,67.3581767 358.478016,66.7858654 358.949854,66.3140663 C359.422049,65.8419095 359.993691,65.6058311 360.665496,65.6058311 C361.315837,65.6058311 361.866732,65.8419095 362.318179,66.3140663 C362.769268,66.7858654 362.99535,67.3581767 362.99535,68.0295694 C362.99535,68.6802158 362.769268,69.2307077 362.318179,69.6821182 C361.866732,70.1335288 361.315837,70.3588763 360.665496,70.3588763 C359.993691,70.3588763 359.422049,70.1335288 358.949854,69.6821182 C358.478016,69.2307077 358.241561,68.6802158 358.241561,68.0295694 L358.241561,68.0295694 Z M359.437789,79.5816727 L359.437789,80.5885829 C359.437789,81.1977367 359.615935,81.6591627 359.972943,81.9735762 C360.329593,82.2883474 360.906602,82.4460907 361.704325,82.4460907 L365.324488,82.4460907 L365.324488,76.1821437 C364.443057,76.3502601 363.640325,76.5598691 362.916293,76.8116861 C362.19226,77.063503 361.578764,77.3360663 361.074732,77.6300912 C360.571057,77.9241161 360.177919,78.2388873 359.894602,78.5740471 C359.611285,78.91028 359.458537,79.2461552 359.437789,79.5816727 L359.437789,79.5816727 Z M364.474537,68.0295694 C364.474537,67.3581767 364.710634,66.7858654 365.183187,66.3140663 C365.655024,65.8419095 366.226667,65.6058311 366.898829,65.6058311 C367.548813,65.6058311 368.099707,65.8419095 368.551512,66.3140663 C369.002602,66.7858654 369.227967,67.3581767 369.227967,68.0295694 C369.227967,68.6802158 369.002602,69.2307077 368.551512,69.6821182 C368.099707,70.1335288 367.548813,70.3588763 366.898829,70.3588763 C366.226667,70.3588763 365.655024,70.1335288 365.183187,69.6821182 C364.710634,69.2307077 364.474537,68.6802158 364.474537,68.0295694 L364.474537,68.0295694 Z" id="Fill-18"></path>
                <polygon id="Fill-19" points="372.879252 82.4460907 384.274179 82.4460907 384.274179 85.8770968 372.879252 85.8770968"></polygon>
                <path d="M402.753463,85.8770968 L383.960098,85.8770968 L383.960098,82.4460907 L394.474309,82.4460907 L394.474309,81.5017771 C394.474309,80.8933386 394.306179,80.2376845 393.970634,79.534457 C393.634732,78.8315872 393.167902,78.144456 392.569789,77.4723479 C391.972033,76.8009552 391.25265,76.156032 390.413431,75.536505 C389.573854,74.9180511 388.650569,74.3875901 387.64322,73.9472681 L387.895057,68.5332033 L400.077691,64.4097005 L399.070341,68.5961576 L391.137463,71.0195382 C392.018894,71.6283343 392.86348,72.3419349 393.671935,73.1603401 C394.478959,73.9787452 395.198341,74.8182543 395.827935,75.6785097 C396.499382,76.6224657 397.066016,77.5828755 397.527837,78.5583086 C397.989301,79.534457 398.22039,80.5156132 398.22039,81.5017771 L398.22039,82.4460907 L402.753463,82.4460907 L402.753463,85.8770968" id="Fill-20"></path>
                <path d="M402.280553,82.4460907 L408.198732,82.4460907 L408.198732,73.2229366 L412.197008,72.0897603 L412.197008,82.4460907 L417.265236,82.4460907 L417.265236,85.8770968 L402.280553,85.8770968 L402.280553,82.4460907 L402.280553,82.4460907 Z M407.758016,90.9760327 C407.758016,90.3042823 407.994472,89.7330441 408.466309,89.2605296 C408.938504,88.7887305 409.510146,88.5526521 410.181951,88.5526521 C410.832293,88.5526521 411.383187,88.7887305 411.834634,89.2605296 C412.285724,89.7330441 412.511447,90.3042823 412.511447,90.9760327 C412.511447,91.6266791 412.285724,92.1775287 411.834634,92.6289392 C411.383187,93.0796344 410.832293,93.3056973 410.181951,93.3056973 C409.510146,93.3056973 408.938504,93.0796344 408.466309,92.6289392 C407.994472,92.1775287 407.758016,91.6266791 407.758016,90.9760327 L407.758016,90.9760327 Z" id="Fill-21"></path>
                <path d="M416.320488,82.4460907 L421.483512,82.4460907 L421.483512,73.3177257 L425.260715,71.9956866 L425.260715,82.4460907 L429.416033,82.4460907 L429.416033,73.3177257 L433.193593,71.9956866 L433.193593,82.4460907 L437.317431,82.4460907 L437.317431,73.3177257 L441.094992,71.9956866 L441.094992,85.8770968 L416.320488,85.8770968 L416.320488,82.4460907 L416.320488,82.4460907 Z M425.638472,68.0295694 C425.638472,67.3581767 425.874569,66.7858654 426.346764,66.3140663 C426.819317,65.8419095 427.390602,65.6058311 428.062407,65.6058311 C428.712748,65.6058311 429.263642,65.8419095 429.715089,66.3140663 C430.166179,66.7858654 430.391902,67.3581767 430.391902,68.0295694 C430.391902,68.6802158 430.166179,69.2307077 429.715089,69.6821182 C429.263642,70.1335288 428.712748,70.3588763 428.062407,70.3588763 C427.390602,70.3588763 426.819317,70.1335288 426.346764,69.6821182 C425.874569,69.2307077 425.638472,68.6802158 425.638472,68.0295694 L425.638472,68.0295694 Z M428.629041,62.0485588 C428.629041,61.3775238 428.865138,60.8055702 429.337691,60.3330557 C429.809528,59.8612566 430.381171,59.6251782 431.053333,59.6251782 C431.703317,59.6251782 432.254211,59.8612566 432.706016,60.3330557 C433.156748,60.8055702 433.382472,61.3775238 433.382472,62.0485588 C433.382472,62.6995629 433.156748,63.2557779 432.706016,63.7168462 C432.254211,64.1789875 431.703317,64.4097005 431.053333,64.4097005 C430.381171,64.4097005 429.809528,64.1789875 429.337691,63.7168462 C428.865138,63.2557779 428.629041,62.6995629 428.629041,62.0485588 L428.629041,62.0485588 Z M431.871805,68.0295694 C431.871805,67.3581767 432.107545,66.7858654 432.57974,66.3140663 C433.051935,65.8419095 433.623577,65.6058311 434.295382,65.6058311 C434.945724,65.6058311 435.496618,65.8419095 435.948065,66.3140663 C436.399154,66.7858654 436.625236,67.3581767 436.625236,68.0295694 C436.625236,68.6802158 436.399154,69.2307077 435.948065,69.6821182 C435.496618,70.1335288 434.945724,70.3588763 434.295382,70.3588763 C433.623577,70.3588763 433.051935,70.1335288 432.57974,69.6821182 C432.107545,69.2307077 431.871805,68.6802158 431.871805,68.0295694 L431.871805,68.0295694 Z" id="Fill-22"></path>
                <path d="M36.5400325,115.454502 L29.8184065,115.454502 L29.8184065,98.88144 L24.3098211,98.88144 L24.3098211,120.220782 L36.5400325,120.220782 L36.5400325,115.454502 L36.5400325,115.454502 Z M41.4133008,118.867623 C41.4133008,122.127294 40.2281626,123.31484 37.6060488,122.567258 C37.4493659,122.536139 37.3209431,122.486419 37.1685528,122.419172 L35.8743089,127.052748 C36.1662114,127.197614 36.4566829,127.313507 36.7689756,127.437985 C42.8785366,129.715784 46.8904065,126.333066 46.8904065,120.402133 L46.8904065,98.88144 L41.4133008,98.88144 L41.4133008,118.867623 L41.4133008,118.867623 Z M99.6102764,111.992376 L106.760455,111.992376 L106.760455,107.431055 L99.6102764,107.431055 L99.6102764,103.557223 L107.911967,103.557223 L107.911967,98.88144 L94.1589268,98.88144 L94.1589268,120.220782 L108.639935,120.220782 L108.639935,115.686646 L99.6102764,115.686646 L99.6102764,111.992376 L99.6102764,111.992376 Z M118.497724,111.992376 L125.63574,111.992376 L125.63574,107.431055 L118.497724,107.431055 L118.497724,103.557223 L126.794407,103.557223 L126.794407,98.88144 L113.036715,98.88144 L113.036715,120.220782 L127.527382,120.220782 L127.527382,115.686646 L118.497724,115.686646 L118.497724,111.992376 L118.497724,111.992376 Z M7.34013008,98.88144 L0.0740487805,120.220782 L5.55580488,120.220782 L6.79066667,116.31118 L13.8077724,116.31118 L14.997561,120.220782 L20.8177236,120.220782 L13.3999675,98.88144 L7.34013008,98.88144 L7.34013008,98.88144 Z M8.33531707,111.444388 L10.3578862,104.675734 L12.3800976,111.444388 L8.33531707,111.444388 L8.33531707,111.444388 Z M57.4074797,98.88144 L50.1381789,120.220782 L55.6227967,120.220782 L56.8601626,116.31118 L63.8740488,116.31118 L65.0684878,120.220782 L70.8936585,120.220782 L63.4676748,98.88144 L57.4074797,98.88144 L57.4074797,98.88144 Z M58.4116098,111.444388 L60.4213008,104.675734 L62.446374,111.444388 L58.4116098,111.444388 L58.4116098,111.444388 Z M163.537626,98.88144 L157.486374,98.88144 L150.205626,120.220782 L155.707057,120.220782 L156.932618,116.31118 L163.953301,116.31118 L165.145951,120.220782 L170.965398,120.220782 L163.537626,98.88144 L163.537626,98.88144 Z M158.537366,111.444388 L160.555285,104.675734 L162.578211,111.444388 L158.537366,111.444388 L158.537366,111.444388 Z M145.751252,112.485995 C144.949236,110.593433 144.661268,110.209269 143.895024,109.850859 C144.023447,109.819739 144.15187,109.759647 144.266341,109.700627 C146.648065,108.601074 147.799577,105.847899 146.890959,102.791041 C146.152976,100.273945 144.208748,98.88144 140.52813,98.88144 L131.886602,98.88144 L131.886602,120.220782 L137.366211,120.220782 L137.366211,112.243835 L138.622537,112.243835 C139.507545,112.243835 140.042341,112.630146 140.504163,113.76368 L140.79535,114.44008 L140.954179,114.824959 L143.02361,120.220782 L148.708911,120.220782 L146.04387,113.228569 C145.944065,112.957078 145.86787,112.728512 145.751252,112.485995 L145.751252,112.485995 Z M141.163805,106.911325 C140.85187,107.293343 140.404358,107.468255 139.358016,107.568768 L137.254244,107.568768 L137.254244,103.557223 L138.886179,103.557223 C139.015317,103.557223 139.14374,103.586554 139.276455,103.586554 C140.114244,103.612308 140.456585,103.714967 140.827902,103.94568 C141.751187,104.477929 141.958309,105.932673 141.163805,106.911325 L141.163805,106.911325 Z M89.3428943,104.326624 L89.3428943,98.88144 L74.6268618,98.88144 L74.6268618,103.557223 L82.1930732,103.557223 L74.3961301,114.764151 L74.3961301,120.220782 L89.5053008,120.220782 L89.5053008,115.508514 L81.5674146,115.508514 L89.3428943,104.326624 L89.3428943,104.326624 Z" id="Fill-23"></path>
                <polyline id="Fill-24" points="188.012715 98.7934472 193.025138 113.528674 193.085236 113.528674 197.82722 98.7934472 204.46013 98.7934472 204.46013 120.220782 200.048325 120.220782 200.048325 105.035575 199.988228 105.035575 194.735772 120.220782 191.104163 120.220782 185.851707 105.185807 185.791967 105.185807 185.791967 120.220782 181.379805 120.220782 181.379805 98.7934472 188.012715 98.7934472"></polyline>
                <polyline id="Fill-25" points="224.628943 98.7934472 224.628943 102.754914 213.313789 102.754914 213.313789 107.346282 223.698146 107.346282 223.698146 111.007643 213.313789 111.007643 213.313789 116.259672 224.868976 116.259672 224.868976 120.220782 208.601854 120.220782 208.601854 98.7934472 224.628943 98.7934472"></polyline>
                <path d="M237.294146,98.7934472 C238.674602,98.7934472 239.959902,99.013787 241.150764,99.4533936 C242.340911,99.8940733 243.371512,100.554377 244.242211,101.434306 C245.112195,102.31495 245.792585,103.415218 246.283024,104.735469 C246.773106,106.056077 247.018504,107.606326 247.018504,109.386929 C247.018504,110.94755 246.817821,112.388344 246.417886,113.708595 C246.017593,115.028845 245.412325,116.169533 244.602439,117.129585 C243.791837,118.089995 242.781268,118.845446 241.570732,119.39558 C240.359837,119.94643 238.934309,120.220782 237.294146,120.220782 L228.049854,120.220782 L228.049854,98.7934472 L237.294146,98.7934472 L237.294146,98.7934472 Z M236.963967,116.259672 C237.644,116.259672 238.304,116.14986 238.944683,115.92952 C239.58465,115.709538 240.15522,115.343974 240.655675,114.834259 C241.155415,114.323829 241.555707,113.658875 241.856195,112.838324 C242.156325,112.01813 242.306211,111.018016 242.306211,109.837266 C242.306211,108.756671 242.201398,107.781596 241.991057,106.911325 C241.781073,106.041054 241.43587,105.295976 240.955447,104.675376 C240.47574,104.055492 239.840065,103.580116 239.049854,103.249964 C238.258927,102.919812 237.283772,102.754914 236.123675,102.754914 L232.762146,102.754914 L232.762146,116.259672 L236.963967,116.259672 L236.963967,116.259672 Z" id="Fill-26"></path>
                <polygon id="Fill-27" points="250.289528 98.7934472 255.001463 98.7934472 255.001463 120.220782 250.289528 120.220782"></polygon>
                <path d="M269.828033,98.7934472 L277.841398,120.220782 L272.949528,120.220782 L271.328683,115.449136 L263.314959,115.449136 L261.634374,120.220782 L256.89239,120.220782 L264.995545,98.7934472 L269.828033,98.7934472 L269.828033,98.7934472 Z M270.098114,111.938007 L267.396943,104.075165 L267.336846,104.075165 L264.545886,111.938007 L270.098114,111.938007 L270.098114,111.938007 Z" id="Fill-28"></path>
                <polyline id="Fill-29" points="292.727707 98.7934472 301.67187 113.168476 301.73161 113.168476 301.73161 98.7934472 306.143772 98.7934472 306.143772 120.220782 301.43148 120.220782 292.517724 105.876157 292.457626 105.876157 292.457626 120.220782 288.045821 120.220782 288.045821 98.7934472 292.727707 98.7934472"></polyline>
                <polyline id="Fill-30" points="326.312585 98.7934472 326.312585 102.754914 314.997431 102.754914 314.997431 107.346282 325.381789 107.346282 325.381789 111.007643 314.997431 111.007643 314.997431 116.259672 326.552618 116.259672 326.552618 120.220782 310.285496 120.220782 310.285496 98.7934472 326.312585 98.7934472"></polyline>
                <polyline id="Fill-31" points="328.052911 102.754914 328.052911 98.7934472 345.610699 98.7934472 345.610699 102.754914 339.187772 102.754914 339.187772 120.220782 334.475837 120.220782 334.475837 102.754914 328.052911 102.754914"></polyline>
                <polyline id="Fill-32" points="363.798439 120.220782 360.166472 105.635786 360.106374 105.635786 356.534862 120.220782 351.762829 120.220782 346.090407 98.7934472 350.802699 98.7934472 354.193919 113.378443 354.254016 113.378443 357.975415 98.7934472 362.387577 98.7934472 366.049236 113.558363 366.109333 113.558363 369.620748 98.7934472 374.242537 98.7934472 368.480325 120.220782 363.798439 120.220782"></polyline>
                <path d="M376.192846,105.140737 C376.673268,103.770409 377.363675,102.574636 378.263707,101.554491 C379.164455,100.533989 380.269821,99.7341838 381.58052,99.1536456 C382.890862,98.573465 384.366472,98.283017 386.00735,98.283017 C387.667902,98.283017 389.14852,98.573465 390.449203,99.1536456 C391.749528,99.7341838 392.850244,100.533989 393.750634,101.554491 C394.651024,102.574636 395.341073,103.770409 395.821496,105.140737 C396.301919,106.511065 396.541951,107.99657 396.541951,109.597253 C396.541951,111.157517 396.301919,112.613334 395.821496,113.963631 C395.341073,115.313928 394.651024,116.48967 393.750634,117.489784 C392.850244,118.490613 391.749528,119.275753 390.449203,119.84556 C389.14852,120.416083 387.667902,120.701165 386.00735,120.701165 C384.366472,120.701165 382.890862,120.416083 381.58052,119.84556 C380.269821,119.275753 379.164455,118.490613 378.263707,117.489784 C377.363675,116.48967 376.673268,115.313928 376.192846,113.963631 C375.71278,112.613334 375.472748,111.157517 375.472748,109.597253 C375.472748,107.99657 375.71278,106.511065 376.192846,105.140737 L376.192846,105.140737 Z M380.499837,112.223089 C380.709821,113.073687 381.045008,113.838795 381.505398,114.519131 C381.965431,115.199108 382.565691,115.744592 383.306179,116.15451 C384.045951,116.564786 384.946699,116.769745 386.00735,116.769745 C387.067642,116.769745 387.968033,116.564786 388.70852,116.15451 C389.44865,115.744592 390.048911,115.199108 390.509301,114.519131 C390.969333,113.838795 391.30452,113.073687 391.514504,112.223089 C391.724846,111.373207 391.829659,110.497213 391.829659,109.597253 C391.829659,108.656874 391.724846,107.7469 391.514504,106.866256 C391.30452,105.985969 390.969333,105.200472 390.509301,104.510122 C390.048911,103.820129 389.44865,103.269994 388.70852,102.859719 C387.968033,102.450159 387.067642,102.244484 386.00735,102.244484 C384.946699,102.244484 384.045951,102.450159 383.306179,102.859719 C382.565691,103.269994 381.965431,103.820129 381.505398,104.510122 C381.045008,105.200472 380.709821,105.985969 380.499837,106.866256 C380.289854,107.7469 380.184683,108.656874 380.184683,109.597253 C380.184683,110.497213 380.289854,111.373207 380.499837,112.223089 L380.499837,112.223089 Z" id="Fill-33"></path>
                <path d="M411.308423,98.7934472 C412.268911,98.7934472 413.133886,98.9483289 413.904423,99.2588078 C414.674244,99.568929 415.334602,99.9935124 415.885138,100.533989 C416.435317,101.074108 416.855642,101.699715 417.146114,102.409739 C417.435512,103.119763 417.580748,103.885229 417.580748,104.705423 C417.580748,105.965938 417.315675,107.056549 416.785886,107.976539 C416.255382,108.897245 415.390049,109.597253 414.189528,110.07728 L414.189528,110.137372 C414.769756,110.297619 415.249821,110.542282 415.630081,110.872435 C416.009984,111.202587 416.320488,111.592831 416.56052,112.043169 C416.800911,112.493149 416.97548,112.988198 417.086016,113.528674 C417.19548,114.068793 417.270602,114.608912 417.310667,115.149031 C417.330699,115.489556 417.350732,115.889816 417.371122,116.349454 C417.390439,116.810164 417.425854,117.279817 417.475935,117.759843 C417.525659,118.240227 417.606146,118.695214 417.715967,119.125521 C417.825789,119.556185 417.991057,119.920676 418.211415,120.220782 L413.499122,120.220782 C413.239057,119.541162 413.078797,118.730626 413.019057,117.789889 C412.958959,116.849868 412.868813,115.949551 412.748976,115.089296 C412.588358,113.968996 412.24852,113.148803 411.72839,112.628357 C411.207902,112.107912 410.357593,111.847868 409.177463,111.847868 L404.465171,111.847868 L404.465171,120.220782 L399.753236,120.220782 L399.753236,98.7934472 L411.308423,98.7934472 L411.308423,98.7934472 Z M409.62748,108.486612 C410.707805,108.486612 411.518407,108.246957 412.058569,107.766573 C412.599089,107.286189 412.868813,106.506057 412.868813,105.42582 C412.868813,104.385644 412.599089,103.630193 412.058569,103.159825 C411.518407,102.689814 410.707805,102.454451 409.62748,102.454451 L404.465171,102.454451 L404.465171,108.486612 L409.62748,108.486612 L409.62748,108.486612 Z" id="Fill-34"></path>
                <polyline id="Fill-35" points="426.134634 98.7934472 426.134634 107.676434 434.508228 98.7934472 440.390634 98.7934472 432.017041 107.2565 441.200878 120.220782 435.288065 120.220782 428.835447 110.587352 426.134634 113.31835 426.134634 120.220782 421.422341 120.220782 421.422341 98.7934472 426.134634 98.7934472"></polyline>
            </g>
        </g>
    </g>
</svg>