<?xml version="1.0" encoding="UTF-8"?>
<svg width="340px" height="196px" viewBox="0 0 340 196" version="1.1" xmlns="http://www.w3.org/2000/svg" xmlns:xlink="http://www.w3.org/1999/xlink">
    <!-- Generator: Sketch 45.2 (43514) - http://www.bohemiancoding.com/sketch -->
    <title>Group Copy 2</title>
    <desc>Created with Sketch.</desc>
    <defs></defs>
    <g id="Page-1" stroke="none" stroke-width="1" fill="none" fill-rule="evenodd">
        <g id="Artboard" transform="translate(-1014.000000, -1133.000000)" fill="#666666">
            <g id="Group-Copy-2" transform="translate(1014.000000, 1133.000000)">
                <path d="M28.4617982,185.603104 L23.2749635,185.603104 L23.2749635,172.826524 L19.0243494,172.826524 L19.0243494,189.277482 L28.4617982,189.277482 L28.4617982,185.603104 L28.4617982,185.603104 Z M32.2221418,188.234132 C32.2221418,190.747096 31.3075658,191.66243 29.2842982,191.086185 C29.1633626,191.062161 29.0640716,191.024064 28.9469152,190.971897 L27.9478216,194.543999 C28.1732018,194.655885 28.3975512,194.745119 28.6383918,194.840873 C33.3528216,196.597065 36.4483626,193.989376 36.4483626,189.417168 L36.4483626,172.826524 L32.2221418,172.826524 L32.2221418,188.234132 L32.2221418,188.234132 Z M77.1298173,182.933638 L82.6475073,182.933638 L82.6475073,179.417478 L77.1298173,179.417478 L77.1298173,176.431231 L83.5359722,176.431231 L83.5359722,172.826524 L72.9235234,172.826524 L72.9235234,189.277482 L84.0977047,189.277482 L84.0977047,185.781915 L77.1298173,185.781915 L77.1298173,182.933638 L77.1298173,182.933638 Z M91.7046272,182.933638 L97.2123538,182.933638 L97.2123538,179.417478 L91.7046272,179.417478 L91.7046272,176.431231 L98.1066594,176.431231 L98.1066594,172.826524 L87.4907749,172.826524 L87.4907749,189.277482 L98.6725146,189.277482 L98.6725146,185.781915 L91.7046272,185.781915 L91.7046272,182.933638 L91.7046272,182.933638 Z M5.92962719,172.826524 L0.322609649,189.277482 L4.55260965,189.277482 L5.5056652,186.263092 L10.9202851,186.263092 L11.8382968,189.277482 L16.3294079,189.277482 L10.6055775,172.826524 L5.92962719,172.826524 L5.92962719,172.826524 Z M6.6975,182.511493 L8.25798246,177.293368 L9.81846491,182.511493 L6.6975,182.511493 L6.6975,182.511493 Z M44.5641082,172.826524 L38.9546857,189.277482 L43.1870906,189.277482 L44.141864,186.263092 L49.5540789,186.263092 L50.4758699,189.277482 L54.9707602,189.277482 L49.240402,172.826524 L44.5641082,172.826524 L44.5641082,172.826524 Z M45.3388523,182.511493 L46.8897149,177.293368 L48.4526023,182.511493 L45.3388523,182.511493 L45.3388523,182.511493 Z M126.499744,172.826524 L121.830322,172.826524 L116.211966,189.277482 L120.457083,189.277482 L121.402924,186.263092 L126.820292,186.263092 L127.740709,189.277482 L132.231477,189.277482 L126.499744,172.826524 L126.499744,172.826524 Z M122.601287,182.511493 L124.158333,177.293368 L125.719503,182.511493 L122.601287,182.511493 L122.601287,182.511493 Z M112.734722,183.314598 C112.115958,181.85528 111.89367,181.559092 111.30239,181.283153 C111.401681,181.259129 111.500629,181.212796 111.588925,181.167149 C113.42701,180.319427 114.315475,178.197033 113.614254,175.840571 C113.044963,173.900077 111.544605,172.826524 108.704335,172.826524 L102.036038,172.826524 L102.036038,189.277482 L106.26432,189.277482 L106.26432,183.127893 L107.233867,183.127893 C107.916879,183.127893 108.329503,183.425454 108.686126,184.299603 L108.910475,184.820935 L109.033129,185.117809 L110.630029,189.277482 L115.017039,189.277482 L112.960446,183.887068 C112.883487,183.677711 112.824737,183.501303 112.734722,183.314598 L112.734722,183.314598 Z M109.194949,179.016955 C108.954108,179.311427 108.608823,179.446308 107.80144,179.523873 L106.178085,179.523873 L106.178085,176.431231 L107.437259,176.431231 C107.536893,176.431231 107.635841,176.453883 107.738567,176.453883 C108.385161,176.473789 108.64902,176.552726 108.935556,176.730851 C109.648114,177.140984 109.807873,178.262585 109.194949,179.016955 L109.194949,179.016955 Z M69.2071564,177.024637 L69.2071564,172.826524 L57.8515716,172.826524 L57.8515716,176.431231 L63.6898099,176.431231 L57.6732602,185.07079 L57.6732602,189.277482 L69.3325585,189.277482 L69.3325585,185.644632 L63.2074415,185.644632 L69.2071564,177.024637 L69.2071564,177.024637 Z" id="Fill-1"></path>
                <polyline id="Fill-2" points="145.325512 172.826524 149.17587 184.133834 149.221564 184.133834 152.864064 172.826524 157.959167 172.826524 157.959167 189.269589 154.570219 189.269589 154.570219 177.616669 154.524181 177.616669 150.489671 189.269589 147.700249 189.269589 143.666082 177.731644 143.6197 177.731644 143.6197 189.269589 140.231096 189.269589 140.231096 172.826524 145.325512 172.826524"></polyline>
                <polyline id="Fill-3" points="173.450614 172.826524 173.450614 175.866312 164.76008 175.866312 164.76008 179.390022 172.735994 179.390022 172.735994 182.199517 164.76008 182.199517 164.76008 186.229458 173.635453 186.229458 173.635453 189.269589 161.140256 189.269589 161.140256 172.826524 173.450614 172.826524"></polyline>
                <path d="M183.179408,172.826524 C184.239656,172.826524 185.227069,172.995725 186.141645,173.333441 C187.055877,173.671158 187.8478,174.177732 188.516038,174.853164 C189.18462,175.528939 189.707186,176.372886 190.084079,177.386377 C190.459942,178.399525 190.64856,179.589425 190.64856,180.956077 C190.64856,182.153527 190.494985,183.258655 190.187493,184.272146 C189.88,185.285294 189.415154,186.160473 188.792953,186.897339 C188.170409,187.634205 187.393947,188.213883 186.464254,188.636028 C185.534218,189.058516 184.439269,189.269589 183.179408,189.269589 L176.078904,189.269589 L176.078904,172.826524 L183.179408,172.826524 L183.179408,172.826524 Z M182.925855,186.229458 C183.448077,186.229458 183.955183,186.145372 184.447171,185.976171 C184.938816,185.807656 185.376864,185.527256 185.761316,185.135656 C186.145424,184.7444 186.452917,184.23405 186.68345,183.604265 C186.913984,182.974822 187.029079,182.207411 187.029079,181.301343 C187.029079,180.472154 186.948684,179.723962 186.787208,179.056081 C186.625731,178.388199 186.360841,177.816416 185.991506,177.340387 C185.622858,176.864702 185.134649,176.499873 184.527909,176.246586 C183.920482,175.993298 183.171162,175.866312 182.280292,175.866312 L179.698385,175.866312 L179.698385,186.229458 L182.925855,186.229458 L182.925855,186.229458 Z" id="Fill-4"></path>
                <polygon id="Fill-5" points="193.161411 172.826524 196.780892 172.826524 196.780892 189.269245 193.161411 189.269245"></polygon>
                <path d="M208.168772,172.826524 L214.324123,189.269589 L210.566528,189.269589 L209.32144,185.607909 L203.166433,185.607909 L201.875307,189.269589 L198.232807,189.269589 L204.457558,172.826524 L208.168772,172.826524 L208.168772,172.826524 Z M208.376287,182.913388 L206.301484,176.879803 L206.255446,176.879803 L204.111586,182.913388 L208.376287,182.913388 L208.376287,182.913388 Z" id="Fill-6"></path>
                <polyline id="Fill-7" points="225.758728 172.826524 232.628699 183.857552 232.674393 183.857552 232.674393 172.826524 236.063341 172.826524 236.063341 189.269589 232.44386 189.269589 225.597251 178.261556 225.55087 178.261556 225.55087 189.269589 222.162266 189.269589 222.162266 172.826524 225.758728 172.826524"></polyline>
                <polyline id="Fill-8" points="251.554788 172.826524 251.554788 175.866312 242.864254 175.866312 242.864254 179.390022 250.840512 179.390022 250.840512 182.199517 242.864254 182.199517 242.864254 186.229458 251.739627 186.229458 251.739627 189.269589 239.24443 189.269589 239.24443 172.826524 251.554788 172.826524"></polyline>
                <polyline id="Fill-9" points="252.891952 175.866312 252.891952 172.826524 266.378341 172.826524 266.378341 175.866312 261.445058 175.866312 261.445058 189.269589 257.825577 189.269589 257.825577 175.866312 252.891952 175.866312"></polyline>
                <polyline id="Fill-10" points="280.348472 189.269589 277.55905 178.077254 277.513012 178.077254 274.769627 189.269589 271.104108 189.269589 266.746988 172.826524 270.366469 172.826524 272.971396 184.018859 273.017434 184.018859 275.876257 172.826524 279.265205 172.826524 282.077646 184.157172 282.123684 184.157172 284.821031 172.826524 288.371111 172.826524 283.944934 189.269589 280.348472 189.269589"></polyline>
                <path d="M289.869408,177.697323 C290.238056,176.645736 290.768523,175.728342 291.460124,174.945143 C292.151725,174.162287 293.00068,173.548289 294.007675,173.103149 C295.013984,172.658009 296.147756,172.434925 297.407617,172.434925 C298.683282,172.434925 299.82049,172.658009 300.819583,173.103149 C301.818677,173.548289 302.663852,174.162287 303.355797,174.945143 C304.047398,175.728342 304.577522,176.645736 304.946513,177.697323 C305.315161,178.74891 305.499656,179.889045 305.499656,181.117041 C305.499656,182.314492 305.315161,183.431631 304.946513,184.467774 C304.577522,185.504261 304.047398,186.40621 303.355797,187.173964 C302.663852,187.941719 301.818677,188.544048 300.819583,188.981638 C299.82049,189.419227 298.683282,189.63785 297.407617,189.63785 C296.147756,189.63785 295.013984,189.419227 294.007675,188.981638 C293.00068,188.544048 292.151725,187.941719 291.460124,187.173964 C290.768523,186.40621 290.238056,185.504261 289.869408,184.467774 C289.50076,183.431631 289.316265,182.314492 289.316265,181.117041 C289.316265,179.889045 289.50076,178.74891 289.869408,177.697323 L289.869408,177.697323 Z M293.177617,183.132011 C293.339094,183.784792 293.596425,184.372363 293.949956,184.894038 C294.303143,185.416056 294.764211,185.834426 295.332814,186.148804 C295.901762,186.463868 296.593019,186.621057 297.407617,186.621057 C298.222558,186.621057 298.913816,186.463868 299.48242,186.148804 C300.051023,185.834426 300.512434,185.416056 300.865965,184.894038 C301.219152,184.372363 301.476827,183.784792 301.638304,183.132011 C301.799781,182.479574 301.880175,181.807917 301.880175,181.117041 C301.880175,180.395619 301.799781,179.697192 301.638304,179.021417 C301.476827,178.345985 301.219152,177.743313 300.865965,177.213744 C300.512434,176.684175 300.051023,176.26203 299.48242,175.946965 C298.913816,175.632588 298.222558,175.475055 297.407617,175.475055 C296.593019,175.475055 295.901762,175.632588 295.332814,175.946965 C294.764211,176.26203 294.303143,176.684175 293.949956,177.213744 C293.596425,177.743313 293.339094,178.345985 293.177617,179.021417 C293.01614,179.697192 292.935746,180.395619 292.935746,181.117041 C292.935746,181.807917 293.01614,182.479574 293.177617,183.132011 L293.177617,183.132011 Z" id="Fill-11"></path>
                <path d="M316.841842,172.826524 C317.579137,172.826524 318.24394,172.945617 318.835906,173.183803 C319.427186,173.421646 319.934291,173.747693 320.357222,174.162287 C320.77981,174.576882 321.10242,175.056686 321.325738,175.601699 C321.548026,176.146712 321.659686,176.73394 321.659686,177.363382 C321.659686,178.330541 321.45595,179.167623 321.048823,179.873601 C320.641352,180.579922 319.976893,181.117041 319.054759,181.485646 L319.054759,181.531636 C319.500365,181.654847 319.869013,181.842581 320.161389,182.095868 C320.453077,182.349155 320.691513,182.648775 320.876009,182.994042 C321.060504,183.339309 321.194839,183.719582 321.279357,184.133834 C321.363531,184.548428 321.42125,184.963023 321.452515,185.377617 C321.467632,185.638798 321.483092,185.945625 321.498553,186.298786 C321.51367,186.651946 321.540811,187.012657 321.579291,187.380918 C321.617083,187.749523 321.678925,188.098908 321.763443,188.42873 C321.847617,188.759239 321.974393,189.039296 322.143772,189.269589 L318.524291,189.269589 C318.324678,188.747913 318.201681,188.126022 318.155643,187.404257 C318.109605,186.682835 318.040205,185.991615 317.948472,185.331627 C317.824788,184.471893 317.563677,183.842451 317.164108,183.442957 C316.764539,183.043807 316.111418,182.844404 315.204744,182.844404 L311.585607,182.844404 L311.585607,189.269589 L307.966126,189.269589 L307.966126,172.826524 L316.841842,172.826524 L316.841842,172.826524 Z M315.550716,180.264857 C316.380431,180.264857 317.002975,180.080898 317.418004,179.712293 C317.833034,179.344032 318.040205,178.745135 318.040205,177.916289 C318.040205,177.117989 317.833034,176.538312 317.418004,176.177258 C317.002975,175.81689 316.380431,175.63602 315.550716,175.63602 L311.585607,175.63602 L311.585607,180.264857 L315.550716,180.264857 L315.550716,180.264857 Z" id="Fill-12"></path>
                <polyline id="Fill-13" points="328.229722 172.826524 328.229722 179.643309 334.661645 172.826524 339.179898 172.826524 332.748319 179.320694 339.802442 189.269589 335.260826 189.269589 330.304181 181.877245 328.229722 183.972526 328.229722 189.269589 324.610241 189.269589 324.610241 172.826524 328.229722 172.826524"></polyline>
                <path d="M43.7824927,156.196755 C43.7824927,155.524069 43.9786696,154.867856 44.3717105,154.227088 C44.7644079,153.586663 45.3776754,153.010075 46.2115132,152.49698 C47.0450073,151.984571 48.1152193,151.544579 49.4224927,151.175632 C50.7287354,150.807713 52.2878436,150.559574 54.0998173,150.431215 L54.0998173,157.950888 L57.5629751,157.950888 L57.5629751,160.56956 L52.1758406,160.56956 C51.9992471,160.457331 51.8511696,160.313527 51.7309211,160.137119 C51.6106725,159.961053 51.5103509,159.784645 51.4302997,159.608579 C51.349905,159.416383 51.2860015,159.216293 51.237902,159.007967 C51.1575073,159.312048 50.997405,159.576661 50.7569079,159.800432 C50.5483626,159.992628 50.2477412,160.16938 49.8550439,160.328972 C49.4620029,160.489593 48.9291301,160.56956 48.2560819,160.56956 C46.6203582,160.56956 45.4659722,160.181393 44.7925804,159.404371 C44.1191886,158.62735 43.7824927,157.558602 43.7824927,156.196755 L43.7824927,156.196755 Z M45.778962,146.94766 C45.778962,146.434908 45.9589912,145.998692 46.3197368,145.638324 C46.680826,145.277613 47.1171564,145.097773 47.6304459,145.097773 C48.1272442,145.097773 48.548114,145.277613 48.8930556,145.638324 C49.2376535,145.998692 49.4101243,146.434908 49.4101243,146.94766 C49.4101243,147.443938 49.2376535,147.864367 48.8930556,148.208604 C48.548114,148.553527 48.1272442,148.725474 47.6304459,148.725474 C47.1171564,148.725474 46.680826,148.553527 46.3197368,148.208604 C45.9589912,147.864367 45.778962,147.443938 45.778962,146.94766 L45.778962,146.94766 Z M46.6925073,155.764657 L46.6925073,156.533442 C46.6925073,156.998144 46.8285599,157.350275 47.1013523,157.590177 C47.3738012,157.830765 47.814598,157.950888 48.4240863,157.950888 L51.1901462,157.950888 L51.1901462,153.169666 C50.5164108,153.298026 49.9031433,153.45796 49.35,153.650157 C48.7968567,153.842696 48.3278874,154.05068 47.9430921,154.275137 C47.5582968,154.499252 47.2576754,154.73984 47.0412281,154.995529 C46.8247807,155.251905 46.7083114,155.508624 46.6925073,155.764657 L46.6925073,155.764657 Z M50.5404605,146.94766 C50.5404605,146.434908 50.7208333,145.998692 51.0815789,145.638324 C51.4423246,145.277613 51.8789985,145.097773 52.3926316,145.097773 C52.8890863,145.097773 53.3099561,145.277613 53.6548977,145.638324 C53.9994956,145.998692 54.1719664,146.434908 54.1719664,146.94766 C54.1719664,147.443938 53.9994956,147.864367 53.6548977,148.208604 C53.3099561,148.553527 52.8890863,148.725474 52.3926316,148.725474 C51.8789985,148.725474 51.4423246,148.553527 51.0815789,148.208604 C50.7208333,147.864367 50.5404605,147.443938 50.5404605,146.94766 L50.5404605,146.94766 Z" id="Fill-14"></path>
                <polygon id="Fill-15" points="56.9613889 157.950888 65.667383 157.950888 65.667383 160.56956 56.9613889 160.56956"></polygon>
                <path d="M65.0661404,157.950888 L69.5874854,157.950888 L69.5874854,150.911362 L72.6417982,150.046479 L72.6417982,157.950888 L76.5138012,157.950888 L76.5138012,160.56956 L65.0661404,160.56956 L65.0661404,157.950888 L65.0661404,157.950888 Z M66.821769,164.485556 C66.821769,163.972804 67.0021418,163.536588 67.3628874,163.17622 C67.723633,162.815852 68.160307,162.635668 68.6735965,162.635668 C69.1703947,162.635668 69.5912646,162.815852 69.9362061,163.17622 C70.2808041,163.536588 70.4532749,163.972804 70.4532749,164.485556 C70.4532749,164.981834 70.2808041,165.402263 69.9362061,165.7465 C69.5912646,166.090737 69.1703947,166.263027 68.6735965,166.263027 C68.160307,166.263027 67.723633,166.090737 67.3628874,165.7465 C67.0021418,165.402263 66.821769,164.981834 66.821769,164.485556 L66.821769,164.485556 Z M71.5836111,164.485556 C71.5836111,163.972804 71.7639839,163.536588 72.1247295,163.17622 C72.4854751,162.815852 72.9221491,162.635668 73.4354386,162.635668 C73.9322368,162.635668 74.3531067,162.815852 74.6980482,163.17622 C75.0426462,163.536588 75.215117,163.972804 75.215117,164.485556 C75.215117,164.981834 75.0426462,165.402263 74.6980482,165.7465 C74.3531067,166.090737 73.9322368,166.263027 73.4354386,166.263027 C72.9221491,166.263027 72.4854751,166.090737 72.1247295,165.7465 C71.7639839,165.402263 71.5836111,164.981834 71.5836111,164.485556 L71.5836111,164.485556 Z" id="Fill-16"></path>
                <path d="M87.6488158,158.479427 C87.6161769,158.896081 87.4323684,159.42462 87.0956725,160.064702 C86.4542325,161.378157 85.8450877,162.035055 85.2678947,162.035055 C85.0593494,162.035055 84.835,161.978769 84.5945029,161.866541 C84.1135088,161.674688 83.4600439,161.378157 82.6344518,160.977977 C81.8085161,160.577111 80.8104532,160.081176 79.6402632,159.488457 C79.3674708,159.968947 79.0548246,160.281266 78.7023246,160.425413 C78.4295322,160.521168 77.9808333,160.56956 77.3555409,160.56956 L75.7923099,160.56956 L75.7923099,157.950888 L77.5719883,157.950888 C78.0529825,156.84576 78.5580263,155.840849 79.0871199,154.935811 C79.6162135,154.031117 80.1411842,153.262332 80.6623757,152.629458 C81.1832237,151.996927 81.6882675,151.504424 82.1775073,151.15195 C82.6664035,150.79982 83.1192251,150.623411 83.5363158,150.623411 C84.5945029,150.623411 85.4760965,151.376065 86.1817836,152.881715 C86.3899854,153.330287 86.5985307,153.894863 86.807076,154.575444 C87.0149342,155.256367 87.2399708,156.076976 87.4804678,157.037956 C87.6247661,157.694855 87.680424,158.175346 87.6488158,158.479427 L87.6488158,158.479427 Z M84.9552485,158.887844 C84.7628509,157.44603 84.5103289,156.280841 84.1976827,155.392277 C83.8850365,154.50337 83.4961184,154.058573 83.0312719,154.058573 C82.8704825,154.058573 82.5901316,154.242876 82.1895322,154.61148 C81.9490351,154.851382 81.6965132,155.184293 81.4319664,155.608498 C81.1674196,156.033045 80.9468494,156.413319 80.7705994,156.749662 C81.4439912,157.262414 82.1414327,157.698287 82.862924,158.058998 C83.5844152,158.419023 84.2818567,158.695648 84.9552485,158.887844 L84.9552485,158.887844 Z" id="Fill-17"></path>
                <path d="M91.087924,148.365107 C91.2160746,148.285139 91.4204971,148.189041 91.7011915,148.076812 C91.9815424,147.964584 92.2663596,147.844461 92.5549561,147.716101 C92.891652,147.571954 93.2523977,147.42815 93.637193,147.284003 C94.1181871,147.908298 94.5871564,148.705568 95.0441009,149.674099 C95.5010453,150.64366 95.9177924,151.644453 96.2946857,152.677164 C96.6712354,153.710561 97.004152,154.699685 97.2927485,155.644535 C97.581345,156.589728 97.8056944,157.350275 97.9661404,157.92652 C98.3186404,157.878814 98.6034576,157.774823 98.819905,157.614545 C99.0363523,157.454267 99.2047003,157.266189 99.3249488,157.049969 C99.4451974,156.833748 99.5252485,156.597621 99.5654459,156.341245 C99.6052997,156.085213 99.6255702,155.828837 99.6255702,155.572461 L99.6255702,145.193871 L102.703933,144.280939 L102.703933,156.509417 C102.703933,157.022169 102.836206,157.390087 103.100753,157.614545 C103.3653,157.839002 103.71402,157.950888 104.146915,157.950888 L106.070892,157.950888 L106.070892,160.56956 L104.988655,160.56956 C104.219064,160.56956 103.561477,160.425413 103.016579,160.137119 C102.471338,159.848481 102.062493,159.464089 101.790044,158.983599 C101.421053,159.448302 100.903984,159.828575 100.238838,160.125107 C99.573348,160.421294 98.679386,160.56956 97.5572953,160.56956 L89.115848,160.56956 L89.9575877,157.950888 L94.9839766,157.950888 C94.8554825,157.390087 94.6871345,156.73765 94.4789327,155.99289 C94.2703874,155.24813 94.0099635,154.455321 93.6973173,153.61412 C93.3846711,152.773605 93.0119006,151.904947 92.5790058,151.007803 C92.1461111,150.110659 91.6489693,149.229989 91.087924,148.365107" id="Fill-18"></path>
                <path d="M105.349057,157.950888 L109.19701,157.950888 C108.876118,157.534577 108.663794,157.025601 108.559693,156.424988 C108.455249,155.824375 108.40337,155.187726 108.40337,154.515039 C108.40337,153.218059 108.928341,152.189123 109.978626,151.428232 C111.028567,150.667341 112.475673,150.263043 114.319598,150.214994 C114.99299,150.182733 115.754335,150.223231 116.60432,150.335117 C117.453962,150.447002 118.26375,150.575019 119.033341,150.719166 L119.033341,153.410255 C118.792844,153.346418 118.492222,153.274345 118.131477,153.193691 C117.770731,153.113724 117.37769,153.04165 116.953041,152.97747 C116.528048,152.913634 116.087251,152.861809 115.630307,152.821311 C115.173363,152.781842 114.728443,152.761593 114.295548,152.761593 C113.942705,152.761593 113.613911,152.785274 113.30951,152.833666 C113.004766,152.881715 112.736096,152.97747 112.503845,153.121617 C112.27125,153.266108 112.090877,153.466541 111.962727,153.72223 C111.834232,153.978606 111.770329,154.307399 111.770329,154.707578 C111.770329,155.572461 111.854503,156.25716 112.022851,156.761331 C112.191199,157.266189 112.411425,157.662251 112.684218,157.950888 L119.129539,157.950888 L119.129539,160.56956 L105.349057,160.56956 L105.349057,157.950888" id="Fill-19"></path>
                <path d="M121.726564,144.49716 C122.127164,144.865764 122.604379,145.261826 123.157522,145.68603 C123.711009,146.110921 124.279613,146.567386 124.865395,147.055771 C125.45049,147.544155 126.035241,148.0648 126.62068,148.617021 C127.205775,149.169928 127.738991,149.758528 128.220329,150.382823 C128.331988,150.255149 128.388333,149.78221 128.388333,148.965719 L128.388333,145.145822 L131.346447,144.184498 L131.346447,149.03745 C131.346447,150.319329 130.865453,151.511975 129.903465,152.617446 C131.234444,154.667766 131.899934,156.49363 131.899934,158.095035 L131.899934,160.56956 L120.981023,160.56956 L120.981023,157.325907 C121.57402,156.941858 122.147434,156.53756 122.700921,156.113013 C123.254064,155.688808 123.770789,155.272155 124.251784,154.863738 C124.732778,154.455321 125.169452,154.063035 125.562493,153.686193 C125.95519,153.310381 126.288107,152.98605 126.560899,152.713201 C126.111513,152.088906 125.614715,151.511975 125.069817,150.983435 C124.524232,150.454896 123.971089,149.966512 123.410387,149.51794 C122.848655,149.070054 122.299635,148.653058 121.762982,148.269009 C121.2253,147.884616 120.748772,147.524249 120.332025,147.187562 L121.726564,144.49716 L121.726564,144.49716 Z M128.989576,167.48862 L123.21799,169.194018 L123.21799,167.680816 L124.80527,167.199983 C124.628333,167.168065 124.47201,167.091873 124.335958,166.97175 C124.199561,166.851971 124.083779,166.70748 123.987237,166.539652 C123.891038,166.371137 123.814766,166.190953 123.758765,165.998757 C123.70242,165.806561 123.674934,165.638733 123.674934,165.494586 C123.674934,164.997621 123.786594,164.553511 124.01163,164.160882 C124.235636,163.768253 124.520453,163.431909 124.865395,163.152195 C125.209649,162.871795 125.58242,162.65935 125.983363,162.515546 C126.383962,162.371399 126.761199,162.299325 127.113699,162.299325 C127.48269,162.299325 127.83519,162.359043 128.171886,162.479509 C128.508582,162.599632 128.837032,162.867333 129.158268,163.28433 C128.997478,163.412347 128.801301,163.572624 128.568706,163.76482 C128.336111,163.957017 128.059539,164.188682 127.738991,164.461188 C127.450395,164.157106 127.089993,164.004722 126.656754,164.004722 C126.239664,164.004722 125.943509,164.116951 125.767259,164.341409 C125.590322,164.565523 125.502368,164.789294 125.502368,165.014095 C125.502368,165.222079 125.562493,165.413932 125.682741,165.59034 C125.80299,165.766749 125.951411,165.915015 126.127661,166.034794 C126.303911,166.154917 126.48875,166.251358 126.681148,166.323431 C126.873545,166.395505 127.04155,166.439435 127.185848,166.455223 L128.989576,165.926684 L128.989576,167.48862 L128.989576,167.48862 Z M129.47057,157.950888 C129.422814,157.758692 129.354101,157.530459 129.266491,157.266189 C129.177851,157.001576 129.069627,156.721862 128.941477,156.424988 C128.812982,156.129143 128.668684,155.824375 128.508582,155.5124 C128.34848,155.199738 128.171886,154.908012 127.979488,154.635505 C127.642792,154.971505 127.321901,155.280048 127.017844,155.560106 C126.712756,155.840849 126.39633,156.113013 126.067537,156.377282 C125.738743,156.641552 125.386243,156.897928 125.009349,157.145723 C124.632456,157.394549 124.21193,157.662251 123.747083,157.950888 L129.47057,157.950888 L129.47057,157.950888 Z" id="Fill-20"></path>
                <polyline id="Fill-21" points="137.407317 144.280939 137.407317 160.56956 134.353004 160.56956 134.353004 145.145822 137.407317 144.280939"></polyline>
                <path d="M156.670789,156.677589 C156.670789,157.430586 156.526491,158.067235 156.237895,158.587538 C155.949298,159.108183 155.548355,159.536506 155.035409,159.872849 C154.52212,160.209192 153.908852,160.453556 153.195607,160.605254 C152.482018,160.757294 151.700402,160.83383 150.85076,160.83383 C150.289371,160.83383 149.708399,160.785437 149.107156,160.689683 C148.505914,160.593241 147.960673,160.417519 147.471776,160.161143 C146.982537,159.905111 146.577814,159.56053 146.257266,159.127746 C145.936374,158.695648 145.776272,158.143084 145.776272,157.470398 C145.776272,156.221123 146.036696,155.096089 146.557887,154.09461 C147.078735,153.094161 147.828399,152.233053 148.806535,151.511975 L147.964795,151.15195 L149.143231,149.25367 C150.297617,149.493916 151.339656,149.842614 152.269693,150.29908 C153.199386,150.755203 153.989247,151.300216 154.638589,151.932747 C155.287931,152.565621 155.788852,153.282238 156.141696,154.082941 C156.494196,154.883987 156.670789,155.74887 156.670789,156.677589 L156.670789,156.677589 Z M146.137018,146.851219 C146.137018,146.274974 146.34144,145.782471 146.750285,145.374054 C147.15913,144.965638 147.652149,144.761429 148.229342,144.761429 C148.517939,144.761429 148.786265,144.817715 149.035007,144.929601 C149.283406,145.041487 149.499854,145.189752 149.684349,145.374054 C149.868501,145.558357 150.0128,145.778696 150.117244,146.034385 C150.221345,146.291105 150.273567,146.563268 150.273567,146.851219 C150.273567,147.412363 150.072924,147.89251 149.672325,148.293033 C149.271382,148.693213 148.790387,148.893303 148.229342,148.893303 C147.940746,148.893303 147.667953,148.841822 147.411652,148.737143 C147.155007,148.633495 146.934437,148.489348 146.750285,148.305045 C146.565789,148.121086 146.417368,147.904866 146.305365,147.656383 C146.193019,147.407901 146.137018,147.139856 146.137018,146.851219 L146.137018,146.851219 Z M153.32788,156.605515 C153.32788,156.413319 153.295585,156.133262 153.231681,155.764657 C153.167434,155.396396 153.047186,155.015779 152.870936,154.623149 C152.694342,154.231207 152.457968,153.86672 152.161469,153.530377 C151.864627,153.193691 151.483955,152.953789 151.019108,152.809642 C150.730512,152.969576 150.465965,153.197809 150.225468,153.493997 C149.984971,153.790872 149.776425,154.098729 149.600175,154.419284 C149.423582,154.73984 149.283406,155.060052 149.179306,155.379922 C149.074861,155.700477 149.022982,155.96509 149.022982,156.173074 C149.022982,156.49363 149.078984,156.765793 149.19133,156.989564 C149.303333,157.214365 149.443852,157.397981 149.6122,157.542471 C149.780548,157.686618 149.972946,157.790953 150.189393,157.854447 C150.405841,157.918626 150.626067,157.950888 150.85076,157.950888 C151.556104,157.950888 152.145322,157.842778 152.618414,157.626214 C153.091162,157.410336 153.32788,157.070218 153.32788,156.605515 L153.32788,156.605515 Z M151.043158,146.851219 C151.043158,146.274974 151.24758,145.782471 151.656425,145.374054 C152.06527,144.965638 152.558289,144.761429 153.135482,144.761429 C153.424079,144.761429 153.692405,144.817715 153.941148,144.929601 C154.189547,145.041487 154.405994,145.189752 154.59049,145.374054 C154.774642,145.558357 154.91894,145.778696 155.023385,146.034385 C155.127485,146.291105 155.179708,146.563268 155.179708,146.851219 C155.179708,147.412363 154.979064,147.89251 154.578465,148.293033 C154.177522,148.693213 153.696528,148.893303 153.135482,148.893303 C152.846886,148.893303 152.574094,148.841822 152.317792,148.737143 C152.061148,148.633495 151.840577,148.489348 151.656425,148.305045 C151.47193,148.121086 151.323509,147.904866 151.211506,147.656383 C151.099159,147.407901 151.043158,147.139856 151.043158,146.851219 L151.043158,146.851219 Z" id="Fill-22"></path>
                <path d="M162.827515,149.902676 C163.068012,151.199999 163.243918,152.49698 163.356608,153.794304 C163.468611,155.091971 163.549006,156.301433 163.597105,157.422349 L166.266623,157.422349 L166.266623,160.56956 L163.621155,160.56956 C163.605007,160.841723 163.561031,161.170173 163.488882,161.554565 C163.416732,161.938957 163.292361,162.3309 163.116111,162.731423 C162.939518,163.131603 162.691118,163.532126 162.37057,163.932649 C162.049335,164.332829 161.628808,164.69354 161.107961,165.014095 C160.586769,165.333965 159.949452,165.59034 159.196009,165.78288 C158.441879,165.975076 157.536579,166.070831 156.478392,166.070831 L155.925249,164.101164 C156.759086,164.085033 157.496382,163.932649 158.137822,163.644355 C158.41027,163.516338 158.67894,163.356404 158.943487,163.164208 C159.208034,162.972012 159.444408,162.731423 159.652953,162.443472 C159.861155,162.155178 160.029503,161.810255 160.157997,161.410418 C160.286148,161.009895 160.350395,160.545536 160.350395,160.016996 C160.350395,158.559738 160.31432,157.061638 160.242171,155.524069 C160.170022,153.9865 159.933304,152.473299 159.532705,150.983435 L162.827515,149.902676" id="Fill-23"></path>
                <polygon id="Fill-24" points="165.665037 157.422349 174.371031 157.422349 174.371031 160.56956 165.665037 160.56956"></polygon>
                <path d="M182.908677,149.854283 L182.908677,160.56956 L173.769788,160.56956 L173.769788,157.422349 L179.205022,157.422349 L179.205022,150.911362 L182.908677,149.854283 L182.908677,149.854283 Z M174.274832,164.725458 C174.274832,164.149213 174.479254,163.65671 174.888099,163.248293 C175.296944,162.839877 175.789963,162.635668 176.367156,162.635668 C176.655753,162.635668 176.924079,162.691611 177.172822,162.803497 C177.421221,162.915726 177.637668,163.063991 177.822164,163.248293 C178.006316,163.431909 178.150614,163.652592 178.255058,163.908968 C178.359159,164.165 178.411382,164.437507 178.411382,164.725458 C178.411382,165.286259 178.210738,165.766749 177.810139,166.167272 C177.409196,166.567452 176.928202,166.767885 176.367156,166.767885 C176.07856,166.767885 175.805768,166.715717 175.549466,166.611725 C175.292822,166.507047 175.072251,166.3629 174.888099,166.179284 C174.703604,165.994982 174.555183,165.778418 174.44318,165.530622 C174.330833,165.28214 174.274832,165.014095 174.274832,164.725458 L174.274832,164.725458 Z M179.180972,164.725458 C179.180972,164.149213 179.385395,163.65671 179.79424,163.248293 C180.203085,162.839877 180.696104,162.635668 181.273297,162.635668 C181.561893,162.635668 181.830219,162.691611 182.078962,162.803497 C182.327361,162.915726 182.543808,163.063991 182.728304,163.248293 C182.912456,163.431909 183.056754,163.652592 183.161199,163.908968 C183.2653,164.165 183.317522,164.437507 183.317522,164.725458 C183.317522,165.286259 183.116879,165.766749 182.716279,166.167272 C182.315336,166.567452 181.834342,166.767885 181.273297,166.767885 C180.9847,166.767885 180.711908,166.715717 180.455607,166.611725 C180.198962,166.507047 179.978392,166.3629 179.79424,166.179284 C179.609744,165.994982 179.461323,165.778418 179.34932,165.530622 C179.236974,165.28214 179.180972,165.014095 179.180972,164.725458 L179.180972,164.725458 Z" id="Fill-25"></path>
                <path d="M189.978947,149.902676 C190.219788,151.199999 190.395694,152.49698 190.508041,153.794304 C190.620387,155.091971 190.700439,156.301433 190.748882,157.422349 L193.418399,157.422349 L193.418399,160.56956 L190.772931,160.56956 C190.756784,160.841723 190.712807,161.170173 190.640658,161.554565 C190.568509,161.938957 190.443794,162.3309 190.267887,162.731423 C190.091294,163.131603 189.842551,163.532126 189.522003,163.932649 C189.201111,164.332829 188.780585,164.69354 188.259737,165.014095 C187.738202,165.333965 187.100885,165.59034 186.347785,165.78288 C185.593655,165.975076 184.688012,166.070831 183.629825,166.070831 L183.077025,164.101164 C183.910519,164.085033 184.647814,163.932649 185.289254,163.644355 C185.561703,163.516338 185.830716,163.356404 186.095263,163.164208 C186.35981,162.972012 186.596184,162.731423 186.80473,162.443472 C187.012931,162.155178 187.180936,161.810255 187.30943,161.410418 C187.43758,161.009895 187.501827,160.545536 187.501827,160.016996 C187.501827,158.559738 187.466096,157.061638 187.393604,155.524069 C187.321798,153.9865 187.08508,152.473299 186.684481,150.983435 L189.978947,149.902676 L189.978947,149.902676 Z M185.794642,146.875587 C185.794642,146.298998 185.998721,145.806153 186.407566,145.398079 C186.816411,144.989319 187.30943,144.785111 187.886966,144.785111 C188.175219,144.785111 188.443889,144.841397 188.692288,144.953625 C188.940687,145.065854 189.157135,145.21412 189.34163,145.398079 C189.526126,145.582381 189.67008,145.80272 189.774868,146.058753 C189.878626,146.314786 189.931192,146.586949 189.931192,146.875587 C189.931192,147.436044 189.730205,147.916878 189.329949,148.316714 C188.928662,148.717237 188.447668,148.917327 187.886966,148.917327 C187.59837,148.917327 187.325234,148.865503 187.069276,148.761511 C186.812632,148.657519 186.592061,148.513372 186.407566,148.32907 C186.22307,148.144767 186.074993,147.92889 185.962646,147.680065 C185.8503,147.432269 185.794642,147.163881 185.794642,146.875587 L185.794642,146.875587 Z" id="Fill-26"></path>
                <path d="M209.170614,160.56956 L192.696908,160.56956 L192.696908,157.422349 L202.990183,157.422349 C202.572749,156.589728 202.216469,155.893017 201.919627,155.332216 C201.623129,154.771415 201.354459,154.327305 201.114306,153.998855 C200.873465,153.670749 200.64087,153.438398 200.41652,153.302144 C200.192171,153.166234 199.935526,153.097936 199.647273,153.097936 C199.229839,153.097936 198.869094,153.202271 198.564693,153.410255 C198.259949,153.618582 197.907105,153.971055 197.506849,154.467333 L195.414181,152.617446 C195.670482,152.233053 195.983472,151.872686 196.35212,151.536343 C196.720768,151.199999 197.12549,150.90793 197.56663,150.659448 C198.00777,150.410966 198.464371,150.214994 198.937807,150.070847 C199.410212,149.9267 199.887427,149.854283 200.368421,149.854283 C200.897515,149.854283 201.386754,149.970974 201.835453,150.202982 C202.284152,150.435333 202.733194,150.807713 203.18258,151.319779 C203.630936,151.832874 204.116053,152.501442 204.637244,153.326169 C205.158092,154.150896 205.755556,155.148257 206.428947,156.316878 C206.653297,156.701613 206.917844,156.98167 207.222588,157.158079 C207.526988,157.334488 207.855782,157.422349 208.208969,157.422349 L209.170614,157.422349 L209.170614,160.56956 L209.170614,160.56956 Z M198.684942,164.605335 C198.684942,164.02909 198.889708,163.536588 199.298209,163.128171 C199.707054,162.719754 200.200073,162.515546 200.77761,162.515546 C201.065863,162.515546 201.334189,162.571489 201.582931,162.683717 C201.83133,162.79526 202.047778,162.943869 202.232273,163.128171 C202.416425,163.311787 202.560724,163.532126 202.665168,163.788502 C202.769269,164.044534 202.821491,164.317384 202.821491,164.605335 C202.821491,165.166136 202.620848,165.646626 202.220249,166.047149 C201.819306,166.447329 201.338311,166.647419 200.77761,166.647419 C200.48867,166.647419 200.215877,166.595595 199.959576,166.49126 C199.702931,166.387268 199.482705,166.242778 199.298209,166.059162 C199.113713,165.874859 198.965292,165.658639 198.853633,165.410157 C198.740943,165.161674 198.684942,164.893973 198.684942,164.605335 L198.684942,164.605335 Z" id="Fill-27"></path>
                <polyline id="Fill-28" points="215.351389 144.0884 215.351389 160.56956 208.473173 160.56956 208.473173 157.422349 211.647734 157.422349 211.647734 145.145822 215.351389 144.0884"></polyline>
                <polyline id="Fill-29" points="221.868516 144.0884 221.868516 160.56956 218.165205 160.56956 218.165205 145.145822 221.868516 144.0884"></polyline>
                <path d="M231.488056,156.196755 C231.488056,155.524069 231.684232,154.867856 232.077273,154.227088 C232.469971,153.586663 233.083238,153.010075 233.917076,152.49698 C234.75057,151.984571 235.820782,151.544579 237.127712,151.175632 C238.434298,150.807713 239.993406,150.559574 241.80538,150.431215 L241.80538,157.950888 L245.268538,157.950888 L245.268538,160.56956 L239.881404,160.56956 C239.70481,160.457331 239.556732,160.313527 239.436484,160.137119 C239.316235,159.961053 239.215914,159.784645 239.135863,159.608579 C239.055468,159.416383 238.991564,159.216293 238.943465,159.007967 C238.86307,159.312048 238.702968,159.576661 238.462471,159.800432 C238.253925,159.992628 237.953304,160.16938 237.560607,160.328972 C237.167566,160.489593 236.634693,160.56956 235.961301,160.56956 C234.325921,160.56956 233.171535,160.181393 232.498143,159.404371 C231.824751,158.62735 231.488056,157.558602 231.488056,156.196755 L231.488056,156.196755 Z M233.484181,146.94766 C233.484181,146.434908 233.664554,145.998692 234.0253,145.638324 C234.386045,145.277613 234.822719,145.097773 235.336009,145.097773 C235.832807,145.097773 236.253677,145.277613 236.598618,145.638324 C236.943216,145.998692 237.115687,146.434908 237.115687,146.94766 C237.115687,147.443938 236.943216,147.864367 236.598618,148.208604 C236.253677,148.553527 235.832807,148.725474 235.336009,148.725474 C234.822719,148.725474 234.386045,148.553527 234.0253,148.208604 C233.664554,147.864367 233.484181,147.443938 233.484181,146.94766 L233.484181,146.94766 Z M234.39807,155.764657 L234.39807,156.533442 C234.39807,156.998144 234.534123,157.350275 234.806915,157.590177 C235.079364,157.830765 235.520161,157.950888 236.129649,157.950888 L238.895365,157.950888 L238.895365,153.169666 C238.221974,153.298026 237.608706,153.45796 237.055563,153.650157 C236.50242,153.842696 236.03345,154.05068 235.648655,154.275137 C235.26386,154.499252 234.963238,154.73984 234.746791,154.995529 C234.530344,155.251905 234.413874,155.508624 234.39807,155.764657 L234.39807,155.764657 Z M238.246023,146.94766 C238.246023,146.434908 238.426396,145.998692 238.787142,145.638324 C239.147887,145.277613 239.584561,145.097773 240.097851,145.097773 C240.594649,145.097773 241.015519,145.277613 241.360461,145.638324 C241.705058,145.998692 241.877529,146.434908 241.877529,146.94766 C241.877529,147.443938 241.705058,147.864367 241.360461,148.208604 C241.015519,148.553527 240.594649,148.725474 240.097851,148.725474 C239.584561,148.725474 239.147887,148.553527 238.787142,148.208604 C238.426396,147.864367 238.246023,147.443938 238.246023,146.94766 L238.246023,146.94766 Z" id="Fill-30"></path>
                <polygon id="Fill-31" points="244.666952 157.950888 253.372946 157.950888 253.372946 160.56956 244.666952 160.56956"></polygon>
                <path d="M267.490124,160.56956 L253.132449,160.56956 L253.132449,157.950888 L261.165051,157.950888 L261.165051,157.230152 C261.165051,156.765793 261.036557,156.265397 260.780256,155.72862 C260.523611,155.192187 260.166645,154.667766 259.7097,154.155015 C259.253099,153.642263 258.703735,153.14976 258.062295,152.677164 C257.421199,152.205254 256.715512,151.800612 255.946265,151.464269 L256.138662,147.332052 L265.445899,144.184498 L264.675965,147.379758 L258.615782,149.229989 C259.289174,149.694349 259.934393,150.239019 260.551784,150.863656 C261.168487,151.488293 261.718194,152.129062 262.199189,152.785274 C262.712135,153.506353 263.144686,154.2391 263.497873,154.98386 C263.850373,155.72862 264.026966,156.477499 264.026966,157.230152 L264.026966,157.950888 L267.490124,157.950888 L267.490124,160.56956" id="Fill-32"></path>
                <path d="M267.129035,157.950888 L271.65038,157.950888 L271.65038,150.911362 L274.704693,150.046479 L274.704693,157.950888 L278.576352,157.950888 L278.576352,160.56956 L267.129035,160.56956 L267.129035,157.950888 L267.129035,157.950888 Z M271.313684,164.461188 C271.313684,163.948436 271.494057,163.512563 271.854803,163.152195 C272.215548,162.791828 272.652222,162.611644 273.165168,162.611644 C273.66231,162.611644 274.08318,162.791828 274.428121,163.152195 C274.772719,163.512563 274.94519,163.948436 274.94519,164.461188 C274.94519,164.957809 274.772719,165.377895 274.428121,165.722818 C274.08318,166.067055 273.66231,166.239346 273.165168,166.239346 C272.652222,166.239346 272.215548,166.067055 271.854803,165.722818 C271.494057,165.377895 271.313684,164.957809 271.313684,164.461188 L271.313684,164.461188 Z" id="Fill-33"></path>
                <path d="M277.855205,157.950888 L281.799013,157.950888 L281.799013,150.983435 L284.685322,149.974406 L284.685322,157.950888 L287.859883,157.950888 L287.859883,150.983435 L290.745504,149.974406 L290.745504,157.950888 L293.896016,157.950888 L293.896016,150.983435 L296.782325,149.974406 L296.782325,160.56956 L277.855205,160.56956 L277.855205,157.950888 L277.855205,157.950888 Z M284.973918,146.94766 C284.973918,146.434908 285.154291,145.998692 285.515037,145.638324 C285.875782,145.277613 286.312456,145.097773 286.825402,145.097773 C287.322544,145.097773 287.74307,145.277613 288.088355,145.638324 C288.432953,145.998692 288.605424,146.434908 288.605424,146.94766 C288.605424,147.443938 288.432953,147.864367 288.088355,148.208604 C287.74307,148.553527 287.322544,148.725474 286.825402,148.725474 C286.312456,148.725474 285.875782,148.553527 285.515037,148.208604 C285.154291,147.864367 284.973918,147.443938 284.973918,146.94766 L284.973918,146.94766 Z M287.25864,142.382659 C287.25864,141.870594 287.43867,141.434034 287.799415,141.073323 C288.160504,140.713299 288.596835,140.533115 289.110468,140.533115 C289.607266,140.533115 290.028136,140.713299 290.372734,141.073323 C290.717332,141.434034 290.889803,141.870594 290.889803,142.382659 C290.889803,142.879623 290.717332,143.303828 290.372734,143.656302 C290.028136,144.008776 289.607266,144.184498 289.110468,144.184498 C288.596835,144.184498 288.160504,144.008776 287.799415,143.656302 C287.43867,143.303828 287.25864,142.879623 287.25864,142.382659 L287.25864,142.382659 Z M289.73576,146.94766 C289.73576,146.434908 289.915789,145.998692 290.276879,145.638324 C290.637624,145.277613 291.073955,145.097773 291.587588,145.097773 C292.084386,145.097773 292.504912,145.277613 292.849854,145.638324 C293.194452,145.998692 293.366923,146.434908 293.366923,146.94766 C293.366923,147.443938 293.194452,147.864367 292.849854,148.208604 C292.504912,148.553527 292.084386,148.725474 291.587588,148.725474 C291.073955,148.725474 290.637624,148.553527 290.276879,148.208604 C289.915789,147.864367 289.73576,147.443938 289.73576,146.94766 L289.73576,146.94766 Z" id="Fill-34"></path>
                <path d="M181.397325,118.948461 C181.193246,119.04147 181.123845,119.383648 181.255431,119.864825 C181.397325,120.32232 182.168977,122.324935 182.168977,122.324935 C182.714218,123.831615 183.637039,125.575109 184.878348,126.470193 C186.2028,127.417446 186.887873,127.084535 187.155168,126.982259 C187.351689,126.872089 188.203048,126.34458 187.899335,124.974153 C187.574664,123.522042 187.396696,123.130443 187.131462,122.600531 C186.872756,122.070275 186.521287,121.741483 186.313085,121.83106 C186.188026,121.853025 186.291784,122.330426 186.291784,122.63039 C186.280446,123.158586 186.099042,123.556363 185.661338,123.750275 C185.274137,123.919133 184.321769,124.264743 183.589627,122.948543 C182.988041,121.889062 182.457917,120.489462 182.235285,119.919052 C182.053194,119.471166 181.78212,118.930271 181.49902,118.930271 C181.46913,118.930271 181.446111,118.939195 181.397325,118.948461 L181.397325,118.948461 Z M160.547946,122.848326 L164.977902,126.563203 L169.285205,121.283644 L164.858684,117.558815 L160.547946,122.848326 L160.547946,122.848326 Z M161.539481,113.618108 L165.959474,117.331955 L170.282237,112.073331 L165.847127,108.333058 L161.539481,113.618108 L161.539481,113.618108 Z M189.829152,100.60746 L195.029386,103.119052 L197.902639,96.9069985 L192.709963,94.4163428 L189.829152,100.60746 L189.829152,100.60746 Z M162.893823,96.2531885 C165.096776,101.473716 168.430753,106.00268 172.261871,109.334537 C172.660753,106.60089 173.092273,104.674467 173.497683,103.300608 C169.588575,100.462627 166.787814,97.394353 164.993019,94.3267657 L162.893823,96.2531885 L162.893823,96.2531885 Z M172.771038,89.5966819 L177.97402,92.0866513 L180.850709,85.8811191 L175.652537,83.3904634 L172.771038,89.5966819 L172.771038,89.5966819 Z M147.652149,64.8703082 C147.652149,64.8703082 144.407156,67.2078935 143.100227,70.3036238 C142.299371,72.197442 142.352968,74.2463899 142.805102,75.2375727 C143.266857,76.2263531 144.347719,77.1722325 145.755658,76.0338137 C146.741352,75.2375727 147.172873,74.1221488 147.386915,73.1687188 C147.518158,72.603113 147.562478,72.2461774 147.562478,71.9681794 C147.562478,71.619824 147.448757,71.3263817 147.122025,71.404633 C146.183743,71.7200405 146.741352,73.0022632 146.071396,73.6227821 C145.56223,73.9375032 144.239839,73.7676156 143.979072,72.4448945 C143.722083,71.1204573 144.725643,69.4178056 145.635753,68.2903695 C146.547924,67.1598444 148.151352,65.6802775 148.151352,65.6802775 C148.151352,65.6802775 149.295431,64.7199834 148.907544,64.2453276 C148.890022,64.217871 148.84845,64.2058587 148.801725,64.2058587 C148.467778,64.2058587 147.652149,64.8703082 147.652149,64.8703082 L147.652149,64.8703082 Z M179.623487,61.4375482 C179.231133,61.8614093 177.382398,63.918251 175.605124,65.8944389 C174.015782,67.6550926 172.499276,69.3364655 172.166703,69.7067862 C171.407763,70.5630885 171.008538,71.404633 171.109547,71.8590395 L171.567865,74.1581856 C171.690863,73.7308924 172.17598,72.9507821 172.710914,72.3463939 C173.092273,71.9225329 174.940665,69.8557382 176.724466,67.8977402 C178.305219,66.1336544 179.823443,64.4605186 180.160139,64.0699486 C180.92492,63.2369844 181.321053,62.3848005 181.216608,61.9396606 L180.746265,59.623011 C180.63598,60.0606003 180.160139,60.8321305 179.623487,61.4375482 L179.623487,61.4375482 Z M136.298626,94.9129638 C136.935256,92.8701936 138.084145,91.0371232 140.084393,89.8887514 C143.365804,88.3319628 144.651433,92.3138545 144.651433,92.3138545 C144.422617,95.0094051 142.403816,96.424449 140.156542,96.424449 C138.840336,96.424449 137.435833,95.9250823 136.298626,94.9129638 L136.298626,94.9129638 Z M160.720417,30.2399999 C158.494101,30.3004044 156.740877,32.1990274 156.803063,34.4590479 C156.874525,36.7297077 158.729101,38.5253686 160.959196,38.4526086 C162.179203,38.4179447 163.23258,37.8262552 163.959225,36.9651479 L164.043056,36.8632154 C164.51924,40.1336382 162.976966,42.7464758 159.386689,45.7701326 C155.714298,48.9097934 147.122025,53.0042572 141.013743,57.9121223 C132.416316,64.8119629 130.385833,72.3230558 129.86258,78.4036605 C129.638575,81.1177443 130.028523,84.6853847 130.758604,87.6359383 C131.672149,91.348069 132.996257,94.1891395 132.996257,94.1891395 C132.996257,94.1891395 133.065314,94.3078893 133.169759,94.5107248 C132.951594,98.5355174 133.351506,105.564747 135.586754,110.874508 C138.59125,117.722524 143.990409,123.32916 151.736133,121.681078 C159.554006,119.816089 160.428041,106.91973 161.319254,97.5034929 C161.551506,95.9611191 161.785819,95.6872396 162.251009,95.2918647 C163.507434,94.2104184 166.555563,91.3058545 168.007822,90.0136789 C168.906594,89.209544 169.686835,88.4074684 170.193253,87.3812785 C170.839159,86.1350926 170.49731,84.473969 170.49731,84.473969 L169.621213,78.2691232 C169.404423,79.1515093 168.341769,80.385683 166.846908,81.9105533 C165.290205,83.5081835 161.139912,87.1204409 160.761988,87.5175318 C160.387156,87.9026104 159.035563,88.8972253 158.458026,93.6334868 C156.957668,106.514059 154.457529,112.593291 149.968136,114.648759 C148.783516,115.215052 147.455285,115.478978 145.978977,115.516388 C137.750885,115.435047 135.586754,105.266157 135.62489,99.6931558 C135.631418,99.365736 135.636915,99.0287064 135.655124,98.7232518 C137.566732,101.33403 140.388107,103.923873 143.871192,103.385037 C149.425987,102.525989 147.696813,93.0205185 146.889773,90.8157544 C146.104379,88.5979485 143.948838,81.9805676 139.292127,82.3083306 C135.992164,82.5355338 134.455044,86.4587371 133.755197,89.7809843 C133.118911,87.155448 132.779466,84.0775645 132.985607,81.6730538 C133.476221,75.9222714 135.417376,68.7392847 143.669174,61.6647515 C149.547953,56.6292132 156.208004,53.0327434 159.911316,50.0653726 C162.268187,48.1869988 163.733158,46.0783328 164.554971,44.099056 C164.322719,46.0168987 163.855468,48.096392 162.948107,50.5197791 C159.529956,59.6487515 149.152507,74.721732 149.013019,96.023926 C149.013019,102.571293 149.619415,108.232841 150.646681,113.074467 C151.209444,112.684241 151.736133,112.173548 152.236711,111.561266 C151.515906,108.097617 151.099503,104.263305 151.099503,100.174676 C151.099503,78.920874 161.405146,63.8674563 164.766265,54.7580467 C166.525673,49.9600079 166.570336,46.4616954 166.570336,43.0090294 C166.570336,38.7717914 165.638238,34.3495647 164.769013,32.625291 C163.82867,30.9724044 162.662259,30.2399999 160.917281,30.2399999 L160.720417,30.2399999 L160.720417,30.2399999 Z M170.839159,1.09757711 C168.770541,2.56856383 167.044115,5.90591213 167.05614,11.0025413 C167.073662,14.1360244 167.93636,17.8862512 170.317968,22.0853932 C167.121075,26.5062471 166.534262,30.5821776 167.891352,34.4772378 C168.922398,37.4384309 169.445994,38.2075586 169.916338,39.9836566 C171.094773,44.4916852 169.787844,49.9013195 166.283458,58.2419446 C163.441469,65.0419119 159.746747,72.1521386 159.746747,80.8122897 C159.764956,82.7994603 159.928838,84.7313745 160.205753,86.6293111 C160.535234,86.3015481 161.238516,85.632637 162.098808,84.8336503 C161.675877,78.0498137 164.340585,71.2247923 167.615124,65.0961386 C172.378341,56.1418588 172.964466,47.0338221 172.048173,42.0490785 C175.391425,45.6723185 181.029364,51.0888169 184.321769,56.6443143 C185.431835,58.515824 186.099042,60.2854012 186.262237,62.0872398 C186.417529,66.4785778 185.056659,69.6251028 182.39848,72.7143122 C180.150175,75.3185696 180.928355,77.6201181 181.022836,78.0707494 C181.193246,78.8120773 182.112632,81.6504021 182.755789,83.5081835 C185.250431,78.5608495 192.132427,75.774349 195.252705,71.6620385 C195.967325,76.7270926 192.207325,81.5446942 189.417558,84.773589 C188.751038,85.5022182 188.024393,86.2486942 187.200519,87.0548883 C181.916111,92.1714235 178.448487,95.6896421 176.611433,98.9573193 C176.141089,99.68183 175.379401,101.30726 174.998041,102.55928 C174.459327,104.124306 173.771506,106.780731 173.196031,111.458304 C172.759013,114.218377 172.265651,117.513854 172.104518,118.982439 C171.747208,122.324935 170.752237,127.629891 166.704327,129.14069 C166.481352,129.233699 166.266623,129.285867 166.040556,129.331856 L166.040556,129.350733 C162.179203,130.204289 158.225775,126.928032 155.350804,121.036191 C154.758151,121.492657 154.112244,121.898328 153.409649,122.213393 C157.302953,131.535934 163.161462,135.820191 168.292982,135.820191 C172.181477,135.820191 175.253655,133.834737 176.236601,128.043799 C176.747829,125.123791 177.105826,121.889062 177.427061,118.748028 C177.585102,117.237916 178.320336,108.702692 179.67777,105.606962 C181.350599,102.135763 185.01818,98.7767922 190.480899,93.0768045 C193.853355,89.5359342 195.693158,86.5884695 196.651367,84.2151906 C199.830738,78.3161426 195.892427,64.2885717 195.127646,61.7670273 C195.104284,61.6767638 195.095007,61.6561713 195.044503,61.6561713 C194.966513,61.6561713 194.942807,61.6767638 194.88337,61.779726 C194.877873,61.8034073 194.865848,61.8212541 194.853823,61.8387576 C193.447946,64.1608986 190.936469,66.2781447 188.602273,68.009969 C189.915387,64.35687 189.560826,61.5799793 189.036886,59.2437668 L189.036886,59.2259201 C189.003904,59.0920692 188.971265,58.9530702 188.935877,58.820249 L188.929693,58.8346637 C186.566294,49.5272235 177.168012,41.2404819 172.932171,36.4644084 C167.424444,30.2763798 169.299978,26.2900264 171.330117,23.756813 C171.711133,24.3244779 172.104518,24.9281797 172.550811,25.5342838 C180.040921,35.821581 194.14848,52.144866 201.543077,67.6952479 C203.42136,71.619824 204.858845,75.4809067 205.648363,79.1597463 C208.561469,95.2640649 197.464247,111.640547 180.826659,107.036077 L180.820475,107.036077 C180.712939,107.01068 180.597156,106.978075 180.499927,106.944441 C180.049167,108.375959 179.623487,110.660004 179.204335,113.779758 C181.725431,114.863264 184.458165,115.516388 187.110848,115.632735 L187.113596,115.63754 C187.307025,115.640285 187.504232,115.64612 187.696974,115.652984 C201.367171,115.803995 212.065855,105.437074 210.097902,83.6797872 C210.097902,83.6797872 209.276776,74.6287228 204.654079,65.0961386 C197.25845,48.3503655 183.576228,31.7816873 175.179444,21.0791092 C172.514737,17.6762083 170.949444,14.7352645 170.160614,12.1931276 C168.588107,7.24613684 169.588575,3.41251071 171.604627,1.73456996 C172.038896,1.36390602 172.581045,0.948968331 173.074751,0.701172622 C173.375373,0.540551581 173.259591,0.183615934 173.045205,0.144147088 C173.000541,0.144147088 172.932171,0.132134831 172.860022,0.132134831 C172.56902,0.132134831 171.994232,0.265299284 170.839159,1.09757711 L170.839159,1.09757711 Z M155.477237,37.2956566 C153.246111,37.3656709 151.486016,39.2539978 151.560914,41.5431908 C151.616915,43.8014952 153.481455,45.5745044 155.718421,45.517532 C157.955387,45.4567843 159.708955,43.5468353 159.637493,41.2854421 C159.575307,39.0624881 157.781886,37.2956566 155.610885,37.2956566 L155.477237,37.2956566 L155.477237,37.2956566 Z" id="Fill-35"></path>
            </g>
        </g>
    </g>
</svg>